<?xml version="1.0" encoding="iso-8859-1"?>
<!-- Generator: Adobe Illustrator 16.0.0, SVG Export Plug-In . SVG Version: 6.00 Build 0)  -->
<!DOCTYPE svg PUBLIC "-//W3C//DTD SVG 1.1//EN" "http://www.w3.org/Graphics/SVG/1.1/DTD/svg11.dtd">
<svg version="1.1" xmlns="http://www.w3.org/2000/svg" xmlns:xlink="http://www.w3.org/1999/xlink" viewBox="0 0 550 470"><g fill="#ffffff" fill-rule="nonzero" stroke="none" stroke-width="1" stroke-linecap="butt" stroke-linejoin="miter" stroke-miterlimit="10" stroke-dasharray="" stroke-dashoffset="0" font-family="none" font-weight="none" font-size="none" text-anchor="none" style="mix-blend-mode: normal"><g><path d="M150.08573,175.09296c0.08676,0 0.17352,0.04338 0.26028,0.13014c0.08676,0.08676 0.2169,0.13014 0.39042,0.13014c0,0 0.04338,-0.04338 0.13014,-0.13014c0,-0.08676 0.04338,-0.17352 0.13014,-0.26028c0.17352,0 0.23859,0.10845 0.19521,0.32535c-0.04338,0.2169 0.02169,0.28197 0.19521,0.19521c0.17352,-0.08676 0.67238,0.28197 1.49659,1.10618c0.82421,0.82421 1.23631,2.1039 1.23631,3.83908c0,0.34704 -0.08676,0.95435 -0.26028,1.82194v1.82194c-0.08676,0.26028 -0.13014,0.49886 -0.13014,0.71576c0,0.2169 -0.08676,0.4121 -0.26028,0.58562l-0.26028,1.17125c-0.17352,0.43379 -0.39042,0.88928 -0.65069,1.36645c-0.26028,0.47717 -0.47717,0.93266 -0.65069,1.36645c-0.26028,0.95435 -0.58562,1.82194 -0.97604,2.60277c-0.39042,0.78083 -0.80252,1.56166 -1.23631,2.34249c-0.78083,1.4749 -1.45321,2.73291 -2.01715,3.77401c-0.56393,1.04111 -1.36645,2.25573 -2.40756,3.64388c-0.95435,1.38814 -1.6918,2.45094 -2.21235,3.18839c-0.52055,0.73745 -1.01942,1.38814 -1.49659,1.95208c-0.47717,0.56393 -0.97604,1.12787 -1.49659,1.6918c-0.52055,0.56393 -1.30138,1.32307 -2.34249,2.27742c0.08676,0 -0.17352,0.28197 -0.78083,0.8459c-0.60731,0.56393 -0.95435,0.8459 -1.04111,0.8459c-0.08676,0.17352 -0.13014,0.23859 -0.13014,0.19521c0,-0.04338 -0.13014,0.06507 -0.39042,0.32535c-0.26028,0.43379 -0.56393,0.73745 -0.91097,0.91097c-0.34704,0.17352 -0.73745,0.47717 -1.17125,0.91097c-1.30138,1.21463 -2.45094,2.16897 -3.44867,2.86304c-0.99773,0.69407 -2.19066,1.64842 -3.57881,2.86304c-0.69407,0.69407 -1.30138,1.19294 -1.82194,1.49659c-0.52055,0.30366 -1.08449,0.71576 -1.6918,1.23631c0,0.34704 -0.08676,0.49886 -0.26028,0.45548c-0.17352,-0.04338 -0.2169,0.02169 -0.13014,0.19521c0.17352,0.17352 0.2169,0.26028 0.13014,0.26028c-0.08676,0 -0.13014,0.04338 -0.13014,0.13014c0.34704,1.21463 0.67238,2.06052 0.97604,2.5377c0.30366,0.47717 0.97604,1.0628 2.01715,1.75687c0.43379,0.26028 0.71576,0.47717 0.8459,0.65069c0.13014,0.17352 0.23859,0.28197 0.32535,0.32535c0.08676,0.04338 0.19521,0.08676 0.32535,0.13014c0.13014,0.04338 0.36873,0.10845 0.71576,0.19521c0.69407,0.26028 1.19294,0.43379 1.49659,0.52055c0.30366,0.08676 0.58562,0.13014 0.8459,0.13014c0.26028,0 0.54224,-0.04338 0.8459,-0.13014c0.30366,-0.08676 0.75914,-0.13014 1.36645,-0.13014c0.26028,0 0.4121,0 0.45548,0c0.04338,0 0.06507,-0.02169 0.06507,-0.06507c0,-0.04338 0.04338,-0.08676 0.13014,-0.13014c0.08676,-0.04338 0.30366,-0.06507 0.65069,-0.06507c0.34704,0 0.88928,-0.17352 1.62673,-0.52055c0.73745,-0.34704 1.49659,-0.75914 2.27742,-1.23631c0.78083,-0.47717 1.51828,-0.95435 2.21235,-1.43152c0.69407,-0.47717 1.17125,-0.88928 1.43152,-1.23631l0.91097,-1.04111c0.69407,-0.43379 1.58335,-1.27969 2.66784,-2.5377c1.08449,-1.258 1.88701,-2.23404 2.40756,-2.92811c0.17352,-0.17352 0.34704,-0.49886 0.52055,-0.97604c0.17352,-0.47717 0.34704,-0.80252 0.52055,-0.97604c0.08676,0.26028 0.2169,0.15183 0.39042,-0.32535c0.17352,-0.47717 0.30366,-0.75914 0.39042,-0.8459c0.08676,0.17352 0.26028,0 0.52055,-0.52055c0.26028,-0.52055 0.52055,-0.91097 0.78083,-1.17125c0.52055,-0.52055 1.12787,-0.71576 1.82194,-0.58562c0.69407,0.13014 1.04111,0.32535 1.04111,0.58562c0,0.43379 0.13014,0.52055 0.39042,0.26028c-0.08676,0.26028 -0.04338,0.47717 0.13014,0.65069c0.17352,0.17352 0.32535,0.34704 0.45548,0.52055c0.13014,0.17352 0.17352,0.4121 0.13014,0.71576c-0.04338,0.30366 -0.28197,0.71576 -0.71576,1.23631c0.08676,0 0.15183,-0.04338 0.19521,-0.13014c0.04338,-0.08676 0.06507,-0.04338 0.06507,0.13014c0.08676,0.34704 0,0.47717 -0.26028,0.39042c-0.26028,-0.08676 -0.30366,0.08676 -0.13014,0.52055l-0.52055,0.78083l-0.65069,1.30138l-0.52055,0.91097c-0.26028,0.34704 -0.4121,0.60731 -0.45548,0.78083c-0.04338,0.17352 -0.19521,0.39042 -0.45548,0.65069c-0.08676,0 -0.10845,0.02169 -0.06507,0.06507c0.04338,0.04338 0.02169,0.06507 -0.06507,0.06507c-0.26028,0.43379 -0.71576,1.01942 -1.36645,1.75687c-0.65069,0.73745 -1.32307,1.51828 -2.01715,2.34249c-0.69407,0.82421 -1.38814,1.58335 -2.08221,2.27742c-0.69407,0.69407 -1.258,1.21463 -1.6918,1.56166c-0.17352,0.17352 -0.32535,0.26028 -0.45548,0.26028c-0.13014,0 -0.23859,0.2169 -0.32535,0.65069c-0.95435,1.04111 -2.45094,2.06052 -4.48977,3.05825c-2.03883,0.99773 -4.2295,1.64842 -6.57199,1.95208c-2.34249,0.30366 -4.55484,0.06507 -6.63706,-0.71576c-2.08221,-0.78083 -3.64388,-2.42925 -4.68498,-4.94526c0.86759,2.42925 1.45321,4.77174 1.75687,7.02747c0.30366,2.25573 0.4121,4.35964 0.32535,6.31171c-0.08676,1.95208 -0.26028,3.73063 -0.52055,5.33567c-0.26028,1.60504 -0.47717,2.92811 -0.65069,3.96922c-0.52055,2.08221 -1.21463,3.94753 -2.08221,5.59595c-0.86759,1.64842 -1.73518,3.21008 -2.60277,4.68498c-0.86759,1.4749 -1.9087,2.84136 -3.12332,4.09936c-1.21463,1.258 -2.38587,2.49432 -3.51374,3.70894c-0.52055,0.52055 -1.14956,0.99773 -1.88701,1.43152c-0.73745,0.43379 -1.45321,0.86759 -2.14728,1.30138c-0.69407,0.43379 -1.49659,0.73745 -2.40756,0.91097c-0.91097,0.17352 -1.84363,0.30366 -2.79798,0.39042c-0.17352,0 -0.36873,-0.02169 -0.58562,-0.06507c-0.2169,-0.04338 -0.4121,-0.06507 -0.58562,-0.06507c-0.95435,-0.17352 -1.49659,-0.36873 -1.62673,-0.58562c-0.13014,-0.2169 -0.4121,-0.629 -0.8459,-1.23631c0,-0.08676 -0.02169,-0.15183 -0.06507,-0.19521c-0.04338,-0.04338 -0.06507,-0.10845 -0.06507,-0.19521c-0.17352,-0.08676 -0.30366,-0.13014 -0.39042,-0.13014c-0.08676,0 -0.2169,-0.08676 -0.39042,-0.26028c-0.26028,-0.86759 -0.49886,-1.80025 -0.71576,-2.79798c-0.2169,-0.99773 -0.28197,-2.19066 -0.19521,-3.57881v-1.95208c0.69407,-3.99091 1.84363,-8.06858 3.44867,-12.23301c1.60504,-4.16443 3.14501,-7.76492 4.61991,-10.80149c2.25573,-4.77174 4.46809,-9.26152 6.63706,-13.46932c2.16897,-4.20781 4.51146,-8.48069 7.02747,-12.81863l2.60277,-4.94526l0.65069,-1.43152c0,0.26028 0.04338,0.26028 0.13014,0l0.39042,-0.65069l-0.52055,0.65069c0.08676,-0.17352 0.19521,-0.39042 0.32535,-0.65069c0.13014,-0.26028 0.23859,-0.34704 0.32535,-0.26028c0.34704,-0.69407 0.67238,-1.27969 0.97604,-1.75687c0.30366,-0.47717 0.75914,-1.14956 1.36645,-2.01715l1.17125,-2.08221c0,-0.08676 0.04338,-0.08676 0.13014,0l1.56166,-2.86304l0.91097,-1.04111c0.17352,-0.43379 0.34704,-0.78083 0.52055,-1.04111c0.17352,-0.26028 0.30366,-0.60731 0.39042,-1.04111c0.26028,-0.08676 0.43379,-0.26028 0.52055,-0.52055c0.08676,-0.26028 0.26028,-0.56393 0.52055,-0.91097l2.08221,-3.12332c0.17352,-0.34704 0.19521,-0.47717 0.06507,-0.39042c-0.13014,0.08676 -0.10845,0.04338 0.06507,-0.13014v-0.13014l0.39042,-0.39042l0.26028,-0.39042l0.65069,-1.04111c0.17352,-0.17352 0.26028,-0.30366 0.26028,-0.39042c0,-0.08676 0.08676,-0.2169 0.26028,-0.39042c0.52055,-0.43379 1.04111,-0.97604 1.56166,-1.62673c0.52055,-0.65069 0.99773,-1.27969 1.43152,-1.88701c0.17352,-0.17352 0.23859,-0.26028 0.19521,-0.26028c-0.04338,0 0.02169,-0.04338 0.19521,-0.13014c0.52055,-0.34704 0.86759,-0.82421 1.04111,-1.43152c0.17352,-0.26028 0.4121,-0.49886 0.71576,-0.71576c0.30366,-0.2169 0.54224,-0.45548 0.71576,-0.71576c0.43379,-0.43379 0.8459,-0.88928 1.23631,-1.36645c0.39042,-0.47717 0.8459,-0.93266 1.36645,-1.36645c0.17352,-0.17352 0.36873,-0.34704 0.58562,-0.52055c0.2169,-0.17352 0.49886,-0.34704 0.8459,-0.52055l1.30138,-1.04111c0,0 0.17352,-0.08676 0.52055,-0.26028c0.52055,-0.34704 1.40983,-0.75914 2.66784,-1.23631c1.258,-0.47717 2.23404,-0.67238 2.92811,-0.58562M113.51684,235.60731c-0.60731,0.86759 -1.04111,1.64842 -1.30138,2.34249c-0.26028,0.69407 -0.60731,1.38814 -1.04111,2.08221c-0.60731,1.04111 -1.14956,2.12559 -1.62673,3.25346c-0.47717,1.12787 -0.93266,2.12559 -1.36645,2.99318l-0.39042,0.91097l-1.56166,3.51374c-0.17352,0.52055 -0.26028,0.91097 -0.26028,1.17125c-0.43379,1.04111 -0.86759,2.12559 -1.30138,3.25346c-0.43379,1.12787 -0.82421,2.34249 -1.17125,3.64388c-0.17352,1.21463 -0.43379,2.49432 -0.78083,3.83908c-0.34704,1.34476 -0.56393,2.7546 -0.65069,4.2295c-0.17352,0.43379 -0.2169,0.91097 -0.13014,1.43152c0.08676,0.52055 0.26028,0.86759 0.52055,1.04111c0.08676,0 0.17352,0.04338 0.26028,0.13014c1.04111,-0.60731 2.08221,-1.43152 3.12332,-2.47263c0.60731,-0.43379 1.14956,-0.91097 1.62673,-1.43152c0.47717,-0.52055 0.97604,-1.08449 1.49659,-1.6918c0.95435,-1.12787 1.77856,-2.36418 2.47263,-3.70894c0.69407,-1.34476 1.38814,-2.71122 2.08221,-4.09936c0.69407,-1.56166 1.36645,-3.57881 2.01715,-6.05144c0.65069,-2.47263 0.88928,-4.66329 0.71576,-6.57199c-0.17352,-2.25573 -0.36873,-4.29457 -0.58562,-6.1165c-0.2169,-1.82194 -0.54224,-2.86304 -0.97604,-3.12332c0,-0.17352 0.06507,-0.32535 0.19521,-0.45548c0.13014,-0.13014 0.06507,-0.28197 -0.19521,-0.45548c-0.17352,0.17352 -0.36873,0.52055 -0.58562,1.04111c-0.2169,0.52055 -0.4121,0.95435 -0.58562,1.30138M143.96922,185.7643c-0.08676,0.17352 -0.26028,0.32535 -0.52055,0.45548c-0.26028,0.13014 -0.43379,0.28197 -0.52055,0.45548l-0.26028,0.65069l-0.65069,0.52055c-0.78083,1.21463 -1.60504,2.38587 -2.47263,3.51374c-0.86759,1.12787 -1.73518,2.29911 -2.60277,3.51374c-0.78083,1.04111 -1.36645,1.9087 -1.75687,2.60277c-0.39042,0.69407 -0.93266,1.60504 -1.62673,2.73291c-0.43379,0.69407 -0.82421,1.30138 -1.17125,1.82194c-0.34704,0.52055 -0.69407,1.01942 -1.04111,1.49659c-0.34704,0.47717 -0.69407,0.97604 -1.04111,1.49659c-0.34704,0.52055 -0.69407,1.17125 -1.04111,1.95208c-0.26028,0.43379 -0.32535,0.56393 -0.19521,0.39042c0.13014,-0.17352 0.10845,-0.04338 -0.06507,0.39042c-0.95435,1.4749 -1.71349,2.71122 -2.27742,3.70894c-0.56393,0.99773 -1.19294,2.23404 -1.88701,3.70894c0.60731,-0.17352 0.95435,-0.30366 1.04111,-0.39042c0.17352,-0.17352 0.28197,-0.32535 0.32535,-0.45548c0.04338,-0.13014 0.15183,-0.23859 0.32535,-0.32535c0.08676,-0.08676 0.17352,-0.10845 0.26028,-0.06507c0.08676,0.04338 0.17352,0.02169 0.26028,-0.06507c0.17352,-0.08676 0.32535,-0.23859 0.45548,-0.45548c0.13014,-0.2169 0.23859,-0.36873 0.32535,-0.45548c0.17352,-0.26028 0.52055,-0.60731 1.04111,-1.04111c0.52055,-0.43379 0.86759,-0.73745 1.04111,-0.91097l3.3836,-3.12332c0.95435,-0.86759 2.08221,-2.1039 3.3836,-3.70894c1.30138,-1.60504 2.77629,-3.66556 4.42471,-6.18157c0.43379,-0.69407 0.73745,-1.14956 0.91097,-1.36645c0.17352,-0.2169 0.47717,-0.67238 0.91097,-1.36645l0.91097,-1.17125l2.86304,-5.46581c0.43379,-0.95435 0.73745,-1.88701 0.91097,-2.79798c0.17352,-0.91097 0.34704,-1.84363 0.52055,-2.79798c-0.17352,0 -0.26028,-0.02169 -0.26028,-0.06507c0,-0.04338 -0.08676,-0.10845 -0.26028,-0.19521zM163.62012,201.12064c0.17352,0 0.23859,-0.04338 0.19521,-0.13014c-0.04338,-0.08676 0.02169,-0.13014 0.19521,-0.13014c0.86759,-0.34704 1.67011,-0.73745 2.40756,-1.17125c0.73745,-0.43379 1.71349,-0.69407 2.92811,-0.78083c0,-0.08676 0.32535,-0.15183 0.97604,-0.19521c0.65069,-0.04338 0.97604,-0.10845 0.97604,-0.19521h2.34249c0.34704,0.08676 0.88928,0.19521 1.62673,0.32535c0.73745,0.13014 1.19294,0.28197 1.36645,0.45548c0.52055,0.34704 0.95435,0.67238 1.30138,0.97604c0.34704,0.30366 0.60731,0.80252 0.78083,1.49659c0,-0.08676 0.10845,-0.02169 0.32535,0.19521c0.2169,0.2169 0.28197,0.28197 0.19521,0.19521c0.17352,0.17352 0.32535,0.629 0.45548,1.36645c0.13014,0.73745 0.19521,1.27969 0.19521,1.62673c0,0.34704 -0.06507,0.65069 -0.19521,0.91097c-0.13014,0.26028 -0.23859,0.56393 -0.32535,0.91097c-0.17352,0.34704 -0.26028,0.65069 -0.26028,0.91097c-0.43379,1.56166 -0.82421,2.60277 -1.17125,3.12332c0,0.17352 -0.17352,0.52055 -0.52055,1.04111c-0.34704,0.52055 -0.52055,0.82421 -0.52055,0.91097c-1.64842,1.99546 -3.1667,3.66556 -4.55484,5.01033c-1.38814,1.34476 -2.9498,2.62446 -4.68498,3.83908c-0.69407,0.43379 -1.56166,0.95435 -2.60277,1.56166c-1.04111,0.60731 -2.12559,0.95435 -3.25346,1.04111c-0.60731,0.08676 -1.23631,0.19521 -1.88701,0.32535c-0.65069,0.13014 -1.23631,0.15183 -1.75687,0.06507c-0.69407,-0.08676 -1.43152,-0.26028 -2.21235,-0.52055c-0.78083,-0.26028 -1.51828,-1.12787 -2.21235,-2.60277c-0.69407,0.86759 -1.30138,1.73518 -1.82194,2.60277c-0.52055,0.86759 -0.95435,2.12559 -1.30138,3.77401c-0.08676,0.26028 -0.17352,0.67238 -0.26028,1.23631c-0.08676,0.56393 -0.13014,1.12787 -0.13014,1.6918c0,0.56393 0.04338,1.08449 0.13014,1.56166c0.08676,0.47717 0.26028,0.8459 0.52055,1.10618c0.78083,0.78083 1.71349,1.19294 2.79798,1.23631c1.08449,0.04338 2.14728,-0.02169 3.18839,-0.19521c0.43379,0 0.8459,-0.04338 1.23631,-0.13014c0.39042,-0.08676 0.67238,-0.17352 0.8459,-0.26028c0.69407,-0.26028 1.258,-0.43379 1.6918,-0.52055c0.43379,-0.08676 0.86759,-0.2169 1.30138,-0.39042c1.04111,-0.52055 2.16897,-1.0628 3.3836,-1.62673c1.21463,-0.56393 2.29911,-1.10618 3.25346,-1.62673c1.38814,-0.86759 2.73291,-1.77856 4.03429,-2.73291c1.30138,-0.95435 2.64615,-2.12559 4.03429,-3.51374c3.73063,-3.29684 6.68044,-6.18157 8.84941,-8.6542c2.16897,-2.47263 3.55712,-4.14274 4.16443,-5.01033c0.08676,-0.26028 0.17352,-0.39042 0.26028,-0.39042c-0.17352,0.34704 -0.26028,0.56393 -0.26028,0.65069v0.13014c0.08676,0 0.13014,-0.13014 0.13014,-0.39042c0.17352,0 0.28197,0.02169 0.32535,0.06507c0.04338,0.04338 0.15183,0.06507 0.32535,0.06507c0.08676,0.26028 0.08676,0.39042 0,0.39042c0.17352,0 0.23859,-0.17352 0.19521,-0.52055c-0.04338,-0.34704 0.02169,-0.47717 0.19521,-0.39042l0.65069,0.39042c0.26028,-0.26028 0.34704,-0.39042 0.26028,-0.39042c0.17352,0.08676 0.19521,0.15183 0.06507,0.19521c-0.13014,0.04338 -0.19521,0.15183 -0.19521,0.32535c0.17352,0 0.30366,-0.04338 0.39042,-0.13014v0.52055c0,0 0.08676,0 0.26028,0c0.34704,0.17352 0.45548,0.629 0.32535,1.36645c-0.13014,0.73745 -0.39042,1.58335 -0.78083,2.5377c-0.39042,0.95435 -0.8459,1.86532 -1.36645,2.73291c-0.52055,0.86759 -0.99773,1.43152 -1.43152,1.6918c-0.34704,0.43379 -0.71576,0.86759 -1.10618,1.30138c-0.39042,0.43379 -0.75914,0.86759 -1.10618,1.30138c-0.08676,0 -0.08676,0.02169 0,0.06507c0.08676,0.04338 0.04338,0.06507 -0.13014,0.06507c-0.08676,0.34704 -0.15183,0.49886 -0.19521,0.45548c-0.04338,-0.04338 -0.19521,0.06507 -0.45548,0.32535c-0.17352,0.34704 -0.34704,0.56393 -0.52055,0.65069c-0.43379,0.52055 -0.629,0.67238 -0.58562,0.45548c0.04338,-0.2169 -0.10845,-0.02169 -0.45548,0.58562c-0.60731,0.60731 -0.93266,0.95435 -0.97604,1.04111c-0.04338,0.08676 -0.04338,0.13014 0,0.13014c0.04338,0 0,0.04338 -0.13014,0.13014c-0.13014,0.08676 -0.49886,0.43379 -1.10618,1.04111c-2.77629,2.77629 -5.74778,5.29229 -8.91448,7.54803c-3.1667,2.25573 -6.78889,4.03429 -10.86656,5.33567c-1.04111,0.43379 -2.21235,0.75914 -3.51374,0.97604c-1.30138,0.2169 -2.62446,0.34704 -3.96922,0.39042c-1.34476,0.04338 -2.68953,0 -4.03429,-0.13014c-1.34476,-0.13014 -2.5377,-0.32535 -3.57881,-0.58562c-0.17352,-0.26028 -0.47717,-0.43379 -0.91097,-0.52055c-0.43379,-0.08676 -0.73745,-0.26028 -0.91097,-0.52055c-0.60731,-0.26028 -1.08449,-0.60731 -1.43152,-1.04111c-0.34704,-0.43379 -0.69407,-0.91097 -1.04111,-1.43152c-0.17352,-0.43379 -0.32535,-0.8459 -0.45548,-1.23631c-0.13014,-0.39042 -0.36873,-0.8459 -0.71576,-1.36645c-0.08676,-0.78083 -0.17352,-1.60504 -0.26028,-2.47263c-0.08676,-0.86759 -0.04338,-1.6918 0.13014,-2.47263c0.08676,-0.08676 0.13014,-0.2169 0.13014,-0.39042v-0.13014c0.17352,-0.17352 0.26028,-0.47717 0.26028,-0.91097c0.43379,-1.64842 0.82421,-3.10163 1.17125,-4.35964c0.34704,-1.258 0.91097,-2.36418 1.6918,-3.31853c0,0 0,-0.04338 0,-0.13014c1.82194,-3.29684 3.86077,-6.29002 6.1165,-8.97955c2.25573,-2.68953 4.90188,-5.0754 7.93844,-7.15761c0.08676,-0.17352 0.13014,-0.17352 0.13014,0c0,0.17352 0.04338,0.17352 0.13014,0c0.69407,-0.43379 1.34476,-0.86759 1.95208,-1.30138c0.60731,-0.43379 1.30138,-0.86759 2.08221,-1.30138h0.13014h0.13014M157.50361,216.73724c-0.08676,0.52055 0.08676,0.99773 0.52055,1.43152c0.08676,0.43379 0.28197,0.67238 0.58562,0.71576c0.30366,0.04338 0.629,-0.02169 0.97604,-0.19521c1.64842,-0.43379 3.03656,-0.99773 4.16443,-1.6918l2.73291,-2.08221c0.17352,-0.34704 0.30366,-0.58562 0.39042,-0.71576c0.08676,-0.13014 0.2169,-0.10845 0.39042,0.06507c0.17352,-0.17352 0.43379,-0.45548 0.78083,-0.8459c0.34704,-0.39042 0.60731,-0.629 0.78083,-0.71576c0.43379,-0.69407 0.88928,-1.21463 1.36645,-1.56166c0.47717,-0.34704 0.88928,-0.78083 1.23631,-1.30138c0.43379,-0.60731 0.93266,-1.34476 1.49659,-2.21235c0.56393,-0.86759 0.54224,-1.51828 -0.06507,-1.95208c0,0 0,-0.13014 0,-0.39042c0.08676,0 0,-0.02169 -0.26028,-0.06507c-0.26028,-0.04338 -0.39042,-0.10845 -0.39042,-0.19521c-0.43379,-0.17352 -0.60731,-0.23859 -0.52055,-0.19521c0.08676,0.04338 -0.13014,0.02169 -0.65069,-0.06507c-0.95435,0.26028 -1.95208,0.69407 -2.99318,1.30138c-1.04111,0.60731 -1.9087,1.12787 -2.60277,1.56166c-1.04111,0.69407 -1.95208,1.38814 -2.73291,2.08221c-0.78083,0.69407 -1.51828,1.4749 -2.21235,2.34249c-0.43379,0.34704 -0.88928,0.82421 -1.36645,1.43152c-0.47717,0.60731 -0.75914,1.08449 -0.8459,1.43152c-0.34704,0.60731 -0.52055,0.93266 -0.52055,0.97604c0,0.04338 -0.08676,0.32535 -0.26028,0.8459M141.88701,228.70998c0,0.08676 -0.02169,0.15183 -0.06507,0.19521c-0.04338,0.04338 -0.06507,0.10845 -0.06507,0.19521c0,-0.26028 0,-0.39042 0,-0.39042c0,0 0.04338,0 0.13014,0M189.6478,210.36046c0.08676,0 0.13014,0.02169 0.13014,0.06507c0,0.04338 -0.04338,0.06507 -0.13014,0.06507zM200.18901,201.12064c0.17352,0 0.23859,-0.04338 0.19521,-0.13014c-0.04338,-0.08676 0.02169,-0.13014 0.19521,-0.13014c0.86759,-0.34704 1.67011,-0.73745 2.40756,-1.17125c0.73745,-0.43379 1.71349,-0.69407 2.92811,-0.78083c0,-0.08676 0.32535,-0.15183 0.97604,-0.19521c0.65069,-0.04338 0.97604,-0.10845 0.97604,-0.19521h2.34249c0.34704,0.08676 0.88928,0.19521 1.62673,0.32535c0.73745,0.13014 1.19294,0.28197 1.36645,0.45548c0.52055,0.34704 0.95435,0.67238 1.30138,0.97604c0.34704,0.30366 0.60731,0.80252 0.78083,1.49659c0,-0.08676 0.10845,-0.02169 0.32535,0.19521c0.2169,0.2169 0.28197,0.28197 0.19521,0.19521c0.17352,0.17352 0.32535,0.629 0.45548,1.36645c0.13014,0.73745 0.19521,1.27969 0.19521,1.62673c0,0.34704 -0.06507,0.65069 -0.19521,0.91097c-0.13014,0.26028 -0.23859,0.56393 -0.32535,0.91097c-0.17352,0.34704 -0.26028,0.65069 -0.26028,0.91097c-0.43379,1.56166 -0.82421,2.60277 -1.17125,3.12332c0,0.17352 -0.17352,0.52055 -0.52055,1.04111c-0.34704,0.52055 -0.52055,0.82421 -0.52055,0.91097c-1.64842,1.99546 -3.1667,3.66556 -4.55484,5.01033c-1.38814,1.34476 -2.9498,2.62446 -4.68498,3.83908c-0.69407,0.43379 -1.56166,0.95435 -2.60277,1.56166c-1.04111,0.60731 -2.12559,0.95435 -3.25346,1.04111c-0.60731,0.08676 -1.23631,0.19521 -1.88701,0.32535c-0.65069,0.13014 -1.23631,0.15183 -1.75687,0.06507c-0.69407,-0.08676 -1.43152,-0.26028 -2.21235,-0.52055c-0.78083,-0.26028 -1.51828,-1.12787 -2.21235,-2.60277c-0.69407,0.86759 -1.30138,1.73518 -1.82194,2.60277c-0.52055,0.86759 -0.95435,2.12559 -1.30138,3.77401c-0.08676,0.26028 -0.17352,0.67238 -0.26028,1.23631c-0.08676,0.56393 -0.13014,1.12787 -0.13014,1.6918c0,0.56393 0.04338,1.08449 0.13014,1.56166c0.08676,0.47717 0.26028,0.8459 0.52055,1.10618c0.78083,0.78083 1.71349,1.19294 2.79798,1.23631c1.08449,0.04338 2.14728,-0.02169 3.18839,-0.19521c0.43379,0 0.8459,-0.04338 1.23631,-0.13014c0.39042,-0.08676 0.67238,-0.17352 0.8459,-0.26028c0.69407,-0.26028 1.258,-0.43379 1.6918,-0.52055c0.43379,-0.08676 0.86759,-0.2169 1.30138,-0.39042c1.04111,-0.52055 2.16897,-1.0628 3.3836,-1.62673c1.21463,-0.56393 2.29911,-1.10618 3.25346,-1.62673c1.38814,-0.86759 2.73291,-1.77856 4.03429,-2.73291c1.30138,-0.95435 2.64615,-2.12559 4.03429,-3.51374c3.73063,-3.29684 6.68044,-6.18157 8.84941,-8.6542c2.16897,-2.47263 3.55712,-4.14274 4.16443,-5.01033c0.08676,-0.26028 0.17352,-0.39042 0.26028,-0.39042c-0.17352,0.34704 -0.26028,0.56393 -0.26028,0.65069v0.13014c0.08676,0 0.13014,-0.13014 0.13014,-0.39042c0.17352,0 0.28197,0.02169 0.32535,0.06507c0.04338,0.04338 0.15183,0.06507 0.32535,0.06507c0.08676,0.26028 0.08676,0.39042 0,0.39042c0.17352,0 0.23859,-0.17352 0.19521,-0.52055c-0.04338,-0.34704 0.02169,-0.47717 0.19521,-0.39042l0.65069,0.39042c0.26028,-0.26028 0.34704,-0.39042 0.26028,-0.39042c0.17352,0.08676 0.19521,0.15183 0.06507,0.19521c-0.13014,0.04338 -0.19521,0.15183 -0.19521,0.32535c0.17352,0 0.30366,-0.04338 0.39042,-0.13014v0.52055c0,0 0.08676,0 0.26028,0c0.34704,0.17352 0.45548,0.629 0.32535,1.36645c-0.13014,0.73745 -0.39042,1.58335 -0.78083,2.5377c-0.39042,0.95435 -0.8459,1.86532 -1.36645,2.73291c-0.52055,0.86759 -0.99773,1.43152 -1.43152,1.6918c-0.34704,0.43379 -0.71576,0.86759 -1.10618,1.30138c-0.39042,0.43379 -0.75914,0.86759 -1.10618,1.30138c-0.08676,0 -0.08676,0.02169 0,0.06507c0.08676,0.04338 0.04338,0.06507 -0.13014,0.06507c-0.08676,0.34704 -0.15183,0.49886 -0.19521,0.45548c-0.04338,-0.04338 -0.19521,0.06507 -0.45548,0.32535c-0.17352,0.34704 -0.34704,0.56393 -0.52055,0.65069c-0.43379,0.52055 -0.629,0.67238 -0.58562,0.45548c0.04338,-0.2169 -0.10845,-0.02169 -0.45548,0.58562c-0.60731,0.60731 -0.93266,0.95435 -0.97604,1.04111c-0.04338,0.08676 -0.04338,0.13014 0,0.13014c0.04338,0 0,0.04338 -0.13014,0.13014c-0.13014,0.08676 -0.49886,0.43379 -1.10618,1.04111c-2.77629,2.77629 -5.74778,5.29229 -8.91448,7.54803c-3.1667,2.25573 -6.78889,4.03429 -10.86656,5.33567c-1.04111,0.43379 -2.21235,0.75914 -3.51374,0.97604c-1.30138,0.2169 -2.62446,0.34704 -3.96922,0.39042c-1.34476,0.04338 -2.68953,0 -4.03429,-0.13014c-1.34476,-0.13014 -2.5377,-0.32535 -3.57881,-0.58562c-0.17352,-0.26028 -0.47717,-0.43379 -0.91097,-0.52055c-0.43379,-0.08676 -0.73745,-0.26028 -0.91097,-0.52055c-0.60731,-0.26028 -1.08449,-0.60731 -1.43152,-1.04111c-0.34704,-0.43379 -0.69407,-0.91097 -1.04111,-1.43152c-0.17352,-0.43379 -0.32535,-0.8459 -0.45548,-1.23631c-0.13014,-0.39042 -0.36873,-0.8459 -0.71576,-1.36645c-0.08676,-0.78083 -0.17352,-1.60504 -0.26028,-2.47263c-0.08676,-0.86759 -0.04338,-1.6918 0.13014,-2.47263c0.08676,-0.08676 0.13014,-0.2169 0.13014,-0.39042v-0.13014c0.17352,-0.17352 0.26028,-0.47717 0.26028,-0.91097c0.43379,-1.64842 0.82421,-3.10163 1.17125,-4.35964c0.34704,-1.258 0.91097,-2.36418 1.6918,-3.31853c0,0 0,-0.04338 0,-0.13014c1.82194,-3.29684 3.86077,-6.29002 6.1165,-8.97955c2.25573,-2.68953 4.90188,-5.0754 7.93844,-7.15761c0.08676,-0.17352 0.13014,-0.17352 0.13014,0c0,0.17352 0.04338,0.17352 0.13014,0c0.69407,-0.43379 1.34476,-0.86759 1.95208,-1.30138c0.60731,-0.43379 1.30138,-0.86759 2.08221,-1.30138h0.13014h0.13014M194.07251,216.73724c-0.08676,0.52055 0.08676,0.99773 0.52055,1.43152c0.08676,0.43379 0.28197,0.67238 0.58562,0.71576c0.30366,0.04338 0.629,-0.02169 0.97604,-0.19521c1.64842,-0.43379 3.03656,-0.99773 4.16443,-1.6918l2.73291,-2.08221c0.17352,-0.34704 0.30366,-0.58562 0.39042,-0.71576c0.08676,-0.13014 0.2169,-0.10845 0.39042,0.06507c0.17352,-0.17352 0.43379,-0.45548 0.78083,-0.8459c0.34704,-0.39042 0.60731,-0.629 0.78083,-0.71576c0.43379,-0.69407 0.88928,-1.21463 1.36645,-1.56166c0.47717,-0.34704 0.88928,-0.78083 1.23631,-1.30138c0.43379,-0.60731 0.93266,-1.34476 1.49659,-2.21235c0.56393,-0.86759 0.54224,-1.51828 -0.06507,-1.95208c0,0 0,-0.13014 0,-0.39042c0.08676,0 0,-0.02169 -0.26028,-0.06507c-0.26028,-0.04338 -0.39042,-0.10845 -0.39042,-0.19521c-0.43379,-0.17352 -0.60731,-0.23859 -0.52055,-0.19521c0.08676,0.04338 -0.13014,0.02169 -0.65069,-0.06507c-0.95435,0.26028 -1.95208,0.69407 -2.99318,1.30138c-1.04111,0.60731 -1.9087,1.12787 -2.60277,1.56166c-1.04111,0.69407 -1.95208,1.38814 -2.73291,2.08221c-0.78083,0.69407 -1.51828,1.4749 -2.21235,2.34249c-0.43379,0.34704 -0.88928,0.82421 -1.36645,1.43152c-0.47717,0.60731 -0.75914,1.08449 -0.8459,1.43152c-0.34704,0.60731 -0.52055,0.93266 -0.52055,0.97604c0,0.04338 -0.08676,0.32535 -0.26028,0.8459M178.4559,228.70998c0,0.08676 -0.02169,0.15183 -0.06507,0.19521c-0.04338,0.04338 -0.06507,0.10845 -0.06507,0.19521c0,-0.26028 0,-0.39042 0,-0.39042c0,0 0.04338,0 0.13014,0M226.21669,210.36046c0.08676,0 0.13014,0.02169 0.13014,0.06507c0,0.04338 -0.04338,0.06507 -0.13014,0.06507zM263.56641,162.59967c0.26028,0 0.56393,0.08676 0.91097,0.26028c0.69407,0.34704 1.23631,0.91097 1.62673,1.6918c0.39042,0.78083 0.67238,1.77856 0.8459,2.99318v0.91097l-0.65069,3.64388c-0.08676,0.17352 -0.10845,0.34704 -0.06507,0.52055c0.04338,0.17352 0.02169,0.34704 -0.06507,0.52055c0,0.17352 -0.04338,0.28197 -0.13014,0.32535c-0.08676,0.04338 -0.13014,0.15183 -0.13014,0.32535c-0.17352,0.34704 -0.28197,0.56393 -0.32535,0.65069c-0.04338,0.08676 -0.19521,0.56393 -0.45548,1.43152c-0.95435,2.86304 -2.5377,6.22495 -4.75005,10.08573c-2.21235,3.86077 -4.83681,7.76492 -7.87337,11.71246c-3.03656,3.94753 -6.31171,7.69986 -9.82545,11.25697c-3.51374,3.55712 -6.9624,6.46354 -10.346,8.71927c-0.17352,-0.17352 -0.30366,-0.13014 -0.39042,0.13014c-0.08676,0.26028 -0.2169,0.43379 -0.39042,0.52055c-0.17352,0.08676 -0.47717,0.26028 -0.91097,0.52055c-0.43379,0.26028 -0.91097,0.52055 -1.43152,0.78083c-0.52055,0.26028 -0.97604,0.52055 -1.36645,0.78083c-0.39042,0.26028 -0.58562,0.43379 -0.58562,0.52055c-0.17352,0 -0.28197,0.02169 -0.32535,0.06507c-0.04338,0.04338 -0.10845,0.06507 -0.19521,0.06507c-0.17352,-0.08676 -0.30366,-0.02169 -0.39042,0.19521c-0.08676,0.2169 -0.13014,0.36873 -0.13014,0.45548c-0.34704,0.52055 -0.71576,1.23631 -1.10618,2.14728c-0.39042,0.91097 -0.75914,1.88701 -1.10618,2.92811c-0.34704,1.04111 -0.629,2.06052 -0.8459,3.05825c-0.2169,0.99773 -0.32535,1.75687 -0.32535,2.27742c-0.17352,1.12787 0.04338,1.99546 0.65069,2.60277c0.52055,0.17352 0.99773,0.26028 1.43152,0.26028c0.43379,0 1.08449,-0.2169 1.95208,-0.65069c1.56166,-0.78083 2.64615,-1.40983 3.25346,-1.88701c0.60731,-0.47717 1.38814,-1.0628 2.34249,-1.75687c1.73518,-1.21463 3.44867,-2.49432 5.14047,-3.83908c1.6918,-1.34476 3.18839,-2.58108 4.48977,-3.70894c1.04111,-0.95435 2.03883,-1.93039 2.99318,-2.92811c0.95435,-0.99773 1.95208,-2.06052 2.99318,-3.18839c0.34704,-0.34704 0.71576,-0.73745 1.10618,-1.17125c0.39042,-0.43379 0.80252,-0.78083 1.23631,-1.04111c0.26028,-0.52055 0.69407,-0.86759 1.30138,-1.04111c0,-0.17352 0.04338,-0.34704 0.13014,-0.52055c0.08676,-0.17352 0.17352,-0.39042 0.26028,-0.65069c0.08676,-0.08676 0.13014,-0.06507 0.13014,0.06507c0,0.13014 0.04338,0.15183 0.13014,0.06507c0.17352,-0.17352 0.30366,-0.32535 0.39042,-0.45548c0.08676,-0.13014 0.2169,-0.28197 0.39042,-0.45548l0.52055,-0.39042c0.17352,-0.17352 0.28197,-0.34704 0.32535,-0.52055c0.04338,-0.17352 0.19521,-0.26028 0.45548,-0.26028c0.52055,-0.60731 1.38814,-1.21463 2.60277,-1.82194c0.52055,0.34704 0.78083,0.73745 0.78083,1.17125c0.17352,-0.17352 0.23859,-0.36873 0.19521,-0.58562c-0.04338,-0.2169 0.02169,-0.32535 0.19521,-0.32535c0,0 0,0.13014 0,0.39042c0.08676,0.17352 0.15183,0.2169 0.19521,0.13014c0.04338,-0.08676 0.06507,-0.04338 0.06507,0.13014c-0.08676,0.08676 -0.13014,0.34704 -0.13014,0.78083c0,0.17352 -0.02169,0.28197 -0.06507,0.32535c-0.04338,0.04338 -0.06507,0.15183 -0.06507,0.32535c0.08676,0 0.15183,-0.04338 0.19521,-0.13014c0.04338,-0.08676 0.10845,-0.08676 0.19521,0l-0.52055,1.17125c0,0.26028 0,0.39042 0,0.39042l-0.39042,1.6918c-0.17352,0.17352 -0.36873,0.32535 -0.58562,0.45548c-0.2169,0.13014 -0.32535,0.32535 -0.32535,0.58562c-0.43379,0.43379 -0.80252,0.86759 -1.10618,1.30138c-0.30366,0.43379 -0.67238,0.91097 -1.10618,1.43152c-0.17352,0.17352 -0.32535,0.32535 -0.45548,0.45548c-0.13014,0.13014 -0.28197,0.28197 -0.45548,0.45548c-0.60731,0.69407 -1.258,1.34476 -1.95208,1.95208c-0.08676,0.43379 -0.19521,0.69407 -0.32535,0.78083c-0.13014,0.08676 -0.32535,0.2169 -0.58562,0.39042l-1.6918,1.82194c-0.60731,0.43379 -1.08449,0.86759 -1.43152,1.30138c-0.34704,0.43379 -0.73745,0.86759 -1.17125,1.30138c-0.69407,0.69407 -1.40983,1.4749 -2.14728,2.34249c-0.73745,0.86759 -1.58335,1.60504 -2.5377,2.21235l-0.65069,0.65069c-0.43379,0.43379 -0.99773,0.91097 -1.6918,1.43152c-0.69407,0.52055 -1.17125,0.86759 -1.43152,1.04111c-0.17352,0.17352 -0.34704,0.34704 -0.52055,0.52055c-0.17352,0.17352 -0.43379,0.30366 -0.78083,0.39042l-0.52055,0.39042c-0.17352,0.08676 -0.28197,0.17352 -0.32535,0.26028c-0.04338,0.08676 -0.15183,0.2169 -0.32535,0.39042l-1.17125,0.65069c-0.52055,0.43379 -1.01942,0.8459 -1.49659,1.23631c-0.47717,0.39042 -1.01942,0.67238 -1.62673,0.8459l-3.64388,1.82194l-1.43152,0.52055c-0.60731,0.17352 -1.23631,0.30366 -1.88701,0.39042c-0.65069,0.08676 -1.40983,0.17352 -2.27742,0.26028c-1.4749,0 -2.77629,-0.34704 -3.90415,-1.04111c-0.26028,-0.17352 -0.52055,-0.47717 -0.78083,-0.91097c-0.26028,-0.34704 -0.43379,-0.65069 -0.52055,-0.91097c-0.08676,-0.26028 -0.17352,-0.47717 -0.26028,-0.65069c-0.69407,-1.30138 -1.01942,-2.29911 -0.97604,-2.99318c0.04338,-0.69407 0.02169,-1.51828 -0.06507,-2.47263c0.17352,-1.73518 0.43379,-3.36191 0.78083,-4.88019c0.34704,-1.51828 0.73745,-2.88473 1.17125,-4.09936l0.78083,-2.86304c0.69407,-1.82194 1.43152,-3.53543 2.21235,-5.14047c0.78083,-1.60504 1.56166,-3.23177 2.34249,-4.88019c1.56166,-3.29684 3.27515,-6.39847 5.14047,-9.3049c1.86532,-2.90642 3.75232,-5.79116 5.66102,-8.6542l0.91097,-1.6918l0.65069,-0.78083l5.20554,-7.54803l1.43152,-2.08221c0.26028,-0.17352 0.47717,-0.43379 0.65069,-0.78083l0.78083,-1.17125c0.52055,-0.52055 1.14956,-1.258 1.88701,-2.21235c0.73745,-0.95435 1.56166,-1.99546 2.47263,-3.12332c0.91097,-1.12787 1.84363,-2.23404 2.79798,-3.31853c0.95435,-1.08449 1.86532,-1.97377 2.73291,-2.66784c1.56166,-1.30138 3.07994,-2.47263 4.55484,-3.51374c1.4749,-1.04111 3.1667,-1.56166 5.0754,-1.56166h0.78083M230.90167,210.88102c0,0 -0.04338,0.08676 -0.13014,0.26028c-0.08676,0 -0.13014,0.04338 -0.13014,0.13014v-0.13014c-0.08676,0.08676 -0.08676,0.13014 0,0.13014c-0.17352,0.43379 -0.34704,0.73745 -0.52055,0.91097c-0.17352,0.17352 -0.30366,0.39042 -0.39042,0.65069c0.69407,-0.43379 1.4749,-1.08449 2.34249,-1.95208c0.86759,-0.86759 1.60504,-1.56166 2.21235,-2.08221c0.17352,-0.26028 0.43379,-0.47717 0.78083,-0.65069c0.34704,-0.17352 0.60731,-0.47717 0.78083,-0.91097c0.34704,-0.08676 0.60731,-0.30366 0.78083,-0.65069l1.43152,-1.30138c0.52055,-0.52055 1.08449,-1.0628 1.6918,-1.62673c0.60731,-0.56393 1.12787,-1.14956 1.56166,-1.75687c0.69407,-0.78083 1.27969,-1.40983 1.75687,-1.88701c0.47717,-0.47717 0.93266,-0.95435 1.36645,-1.43152c0.43379,-0.47717 0.86759,-0.97604 1.30138,-1.49659c0.43379,-0.52055 0.99773,-1.21463 1.6918,-2.08221c1.04111,-1.4749 2.01715,-2.88473 2.92811,-4.2295c0.91097,-1.34476 1.80025,-2.66784 2.66784,-3.96922c0.86759,-1.30138 1.71349,-2.66784 2.5377,-4.09936c0.82421,-1.43152 1.71349,-3.01487 2.66784,-4.75005c0.52055,-0.95435 1.01942,-1.99546 1.49659,-3.12332c0.47717,-1.12787 0.80252,-2.34249 0.97604,-3.64388c-0.17352,-0.34704 -0.47717,-0.39042 -0.91097,-0.13014l-0.78083,0.78083c-1.4749,1.21463 -2.79798,2.45094 -3.96922,3.70894c-1.17125,1.258 -2.36418,2.58108 -3.57881,3.96922c-0.34704,0.34704 -0.60731,0.629 -0.78083,0.8459c-0.17352,0.2169 -0.34704,0.45548 -0.52055,0.71576l-1.43152,1.6918l-0.39042,0.78083l-0.78083,1.04111c-0.17352,0.26028 -0.32535,0.56393 -0.45548,0.91097c-0.13014,0.34704 -0.36873,0.65069 -0.71576,0.91097c-0.17352,0.26028 -0.34704,0.49886 -0.52055,0.71576c-0.17352,0.2169 -0.34704,0.45548 -0.52055,0.71576c-0.34704,0.26028 -0.69407,0.73745 -1.04111,1.43152c-0.43379,0.69407 -0.82421,1.27969 -1.17125,1.75687c-0.34704,0.47717 -0.69407,1.0628 -1.04111,1.75687c-0.08676,0 -0.13014,0.04338 -0.13014,0.13014c-0.17352,0.43379 -0.43379,0.8459 -0.78083,1.23631c-0.34704,0.39042 -0.60731,0.80252 -0.78083,1.23631c-0.52055,0.86759 -0.97604,1.58335 -1.36645,2.14728c-0.39042,0.56393 -0.75914,1.10618 -1.10618,1.62673c-0.34704,0.52055 -0.69407,1.08449 -1.04111,1.6918c-0.34704,0.60731 -0.78083,1.34476 -1.30138,2.21235l-0.39042,0.78083c0.08676,-0.26028 0.13014,-0.45548 0.13014,-0.58562c0,-0.13014 -0.2169,0.10845 -0.65069,0.71576l-3.51374,6.37678h0.13014l-0.13014,0.13014l-0.26028,0.13014zM319.13551,257.08015c0,0 -0.13014,-0.13014 -0.39042,-0.39042c-0.17352,0 -0.23859,0.04338 -0.19521,0.13014c0.04338,0.08676 0.02169,0.13014 -0.06507,0.13014c-0.34704,-0.08676 -0.71576,-0.13014 -1.10618,-0.13014c-0.39042,0 -0.75914,0 -1.10618,0c0,0.08676 -0.23859,0.06507 -0.71576,-0.06507c-0.47717,-0.13014 -0.75914,-0.10845 -0.8459,0.06507c0,-0.17352 -0.80252,-0.26028 -2.40756,-0.26028c-1.60504,0 -3.40529,0.13014 -5.40074,0.39042c-1.99546,0.26028 -3.86077,0.60731 -5.59595,1.04111c-1.73518,0.43379 -2.73291,0.95435 -2.99318,1.56166c0,0.26028 -0.15183,0.56393 -0.45548,0.91097c-0.30366,0.34704 -0.49886,0.52055 -0.58562,0.52055c-0.08676,0.08676 -0.06507,0.15183 0.06507,0.19521c0.13014,0.04338 0.10845,0.10845 -0.06507,0.19521c-0.78083,1.64842 -1.38814,2.97149 -1.82194,3.96922c-0.43379,0.99773 -0.86759,1.95208 -1.30138,2.86304c-0.43379,0.91097 -0.91097,1.86532 -1.43152,2.86304c-0.52055,0.99773 -1.258,2.3208 -2.21235,3.96922c-1.64842,3.3836 -3.10163,6.29002 -4.35964,8.71927c-1.258,2.42925 -2.01715,3.86077 -2.27742,4.29457c-0.34704,0.69407 -0.73745,1.27969 -1.17125,1.75687c-0.43379,0.47717 -0.82421,1.01942 -1.17125,1.62673c-0.43379,0.78083 -0.97604,1.62673 -1.62673,2.5377c-0.65069,0.91097 -1.32307,1.82194 -2.01715,2.73291c-0.69407,0.91097 -1.36645,1.73518 -2.01715,2.47263c-0.65069,0.73745 -1.19294,1.32307 -1.62673,1.75687c0,0.08676 -0.04338,0.15183 -0.13014,0.19521c-0.08676,0.04338 -0.13014,0.10845 -0.13014,0.19521c-0.17352,0.34704 -0.43379,0.629 -0.78083,0.8459c-0.34704,0.2169 -0.69407,0.4121 -1.04111,0.58562c-1.56166,1.56166 -3.47036,2.86304 -5.72609,3.90415c-0.86759,0.43379 -1.71349,0.67238 -2.5377,0.71576c-0.82421,0.04338 -1.62673,0.02169 -2.40756,-0.06507c-0.78083,-0.08676 -1.45321,-0.28197 -2.01715,-0.58562c-0.56393,-0.30366 -1.19294,-0.629 -1.88701,-0.97604c-0.43379,-0.60731 -0.8459,-1.0628 -1.23631,-1.36645c-0.39042,-0.30366 -0.71576,-0.71576 -0.97604,-1.23631c-0.26028,-0.43379 -0.30366,-0.78083 -0.13014,-1.04111c-0.34704,-0.69407 -0.60731,-1.36645 -0.78083,-2.01715c-0.17352,-0.65069 -0.30366,-1.36645 -0.39042,-2.14728c-0.08676,-0.43379 -0.13014,-0.80252 -0.13014,-1.10618c0,-0.30366 0,-0.54224 0,-0.71576c0.08676,-1.64842 0.23859,-3.25346 0.45548,-4.81512c0.2169,-1.56166 0.49886,-3.07994 0.8459,-4.55484c0.60731,-2.34249 1.23631,-4.09936 1.88701,-5.27061c0.65069,-1.17125 1.45321,-2.62446 2.40756,-4.35964c0.26028,-0.43379 0.49886,-0.82421 0.71576,-1.17125c0.2169,-0.34704 0.45548,-0.60731 0.71576,-0.78083c0,-0.08676 0.02169,-0.13014 0.06507,-0.13014c0.04338,0 0.06507,-0.04338 0.06507,-0.13014l0.13014,-0.13014c0.08676,0 0.13014,-0.04338 0.13014,-0.13014c0,0 0.04338,-0.08676 0.13014,-0.26028c1.38814,-1.64842 2.62446,-2.92811 3.70894,-3.83908c1.08449,-0.91097 2.45094,-2.1039 4.09936,-3.57881c1.73518,-1.30138 3.44867,-2.47263 5.14047,-3.51374c1.6918,-1.04111 3.49205,-2.08221 5.40074,-3.12332c0.08676,0 0.13014,-0.04338 0.13014,-0.13014c0.08676,0 0.17352,-0.04338 0.26028,-0.13014c0.26028,-0.43379 0.58562,-0.67238 0.97604,-0.71576c0.39042,-0.04338 0.88928,-0.23859 1.49659,-0.58562c1.82194,-0.69407 3.3836,-1.30138 4.68498,-1.82194c1.30138,-0.52055 2.9498,-1.12787 4.94526,-1.82194c0.34704,-0.43379 0.58562,-0.80252 0.71576,-1.10618c0.13014,-0.30366 0.32535,-0.67238 0.58562,-1.10618c0.08676,-0.17352 0.13014,-0.34704 0.13014,-0.52055c0.08676,-0.17352 0.43379,-0.93266 1.04111,-2.27742c0.60731,-1.34476 1.258,-2.79798 1.95208,-4.35964c0.69407,-1.56166 1.32307,-3.05825 1.88701,-4.48977c0.56393,-1.43152 0.88928,-2.27742 0.97604,-2.5377c0.17352,-0.52055 0.49886,-1.258 0.97604,-2.21235c0.47717,-0.95435 0.95435,-1.9087 1.43152,-2.86304c0.47717,-0.95435 0.88928,-1.82194 1.23631,-2.60277c0.34704,-0.78083 0.52055,-1.30138 0.52055,-1.56166l0.26028,-0.65069c0,-0.34704 0.10845,-0.629 0.32535,-0.8459c0.2169,-0.2169 0.32535,-0.49886 0.32535,-0.8459c-2.51601,2.77629 -5.01033,5.33567 -7.48296,7.67817c-2.47263,2.34249 -5.7044,4.33795 -9.69531,5.98637c-0.78083,0.08676 -1.56166,0.23859 -2.34249,0.45548c-0.78083,0.2169 -1.4749,0.15183 -2.08221,-0.19521c0.17352,0 0.45548,0.02169 0.8459,0.06507c0.39042,0.04338 0.629,-0.02169 0.71576,-0.19521c-0.26028,0 -0.58562,-0.02169 -0.97604,-0.06507c-0.39042,-0.04338 -0.629,0.02169 -0.71576,0.19521h0.13014c-0.08676,0.08676 -0.30366,0.13014 -0.65069,0.13014c-0.17352,-0.26028 -0.47717,-0.47717 -0.91097,-0.65069c0,0.08676 0.04338,0.13014 0.13014,0.13014c-0.08676,0.08676 -0.2169,0 -0.39042,-0.26028c0,0.08676 0.08676,0.13014 0.26028,0.13014c-0.08676,-0.08676 -0.15183,-0.19521 -0.19521,-0.32535c-0.04338,-0.13014 -0.15183,-0.19521 -0.32535,-0.19521l0.26028,0.39042c-0.26028,-0.08676 -0.39042,-0.30366 -0.39042,-0.65069c-0.17352,-0.34704 -0.39042,-0.60731 -0.65069,-0.78083c-0.26028,-0.17352 -0.47717,-0.43379 -0.65069,-0.78083c-0.34704,-0.52055 -0.65069,-1.17125 -0.91097,-1.95208c-0.26028,-0.78083 -0.39042,-1.6918 -0.39042,-2.73291c0.17352,0 0.13014,-0.13014 -0.13014,-0.39042c0,0.08676 0,-0.19521 0,-0.8459c0,-0.65069 -0.04338,-1.0628 -0.13014,-1.23631c0.08676,0 0.13014,-0.04338 0.13014,-0.13014c0.95435,-3.90415 2.03883,-7.09254 3.25346,-9.56517c1.21463,-2.47263 2.47263,-4.79343 3.77401,-6.9624c1.30138,-1.64842 2.7546,-3.29684 4.35964,-4.94526c1.60504,-1.64842 3.36191,-3.21008 5.27061,-4.68498l0.91097,-0.78083c0.43379,-0.34704 0.86759,-0.629 1.30138,-0.8459c0.43379,-0.2169 0.99773,-0.49886 1.6918,-0.8459c1.12787,-0.78083 2.36418,-1.34476 3.70894,-1.6918c1.34476,-0.34704 2.66784,-0.56393 3.96922,-0.65069c0.43379,0.17352 0.91097,0.28197 1.43152,0.32535c0.52055,0.04338 0.99773,0.15183 1.43152,0.32535c0.08676,0.17352 0.2169,0.26028 0.39042,0.26028c0.17352,0 0.43379,0.08676 0.78083,0.26028c0.43379,0.52055 1.01942,1.19294 1.75687,2.01715c0.73745,0.82421 1.19294,1.67011 1.36645,2.5377c0.26028,-0.43379 0.43379,-0.65069 0.52055,-0.65069c0.08676,0 0.26028,-0.17352 0.52055,-0.52055c0.08676,0 0.10845,0.02169 0.06507,0.06507c-0.04338,0.04338 -0.02169,0.06507 0.06507,0.06507c0.17352,-0.43379 0.34704,-0.82421 0.52055,-1.17125c0.17352,-0.34704 0.43379,-0.56393 0.78083,-0.65069c0.43379,0 0.65069,-0.13014 0.65069,-0.39042c0.08676,0.08676 0.19521,-0.08676 0.32535,-0.52055c0.13014,-0.43379 0.19521,-0.60731 0.19521,-0.52055c0.69407,-1.04111 1.40983,-1.58335 2.14728,-1.62673c0.73745,-0.04338 1.38814,0.17352 1.95208,0.65069c0.56393,0.47717 0.99773,1.10618 1.30138,1.88701c0.30366,0.78083 0.36873,1.43152 0.19521,1.95208c0,0.17352 -0.06507,0.26028 -0.19521,0.26028c-0.13014,0 -0.19521,0.08676 -0.19521,0.26028c0.08676,0.17352 0.08676,0.32535 0,0.45548c-0.08676,0.13014 -0.08676,0.28197 0,0.45548c-0.34704,0.43379 -0.52055,0.71576 -0.52055,0.8459c0,0.13014 -0.13014,0.4121 -0.39042,0.8459c-0.34704,0.43379 -0.47717,0.58562 -0.39042,0.45548c0.08676,-0.13014 0.08676,0.06507 0,0.58562c-0.69407,1.12787 -1.32307,2.12559 -1.88701,2.99318c-0.56393,0.86759 -1.10618,1.77856 -1.62673,2.73291c-1.04111,2.16897 -2.01715,4.29457 -2.92811,6.37678c-0.91097,2.08221 -1.88701,4.20781 -2.92811,6.37678c0,-0.08676 -0.19521,0.36873 -0.58562,1.36645c-0.39042,0.99773 -0.8459,2.14728 -1.36645,3.44867c-0.52055,1.21463 -1.01942,2.36418 -1.49659,3.44867c-0.47717,1.08449 -0.67238,1.53997 -0.58562,1.36645l-1.17125,3.12332c-0.95435,1.99546 -1.9087,4.14274 -2.86304,6.44185c-0.95435,2.29911 -1.77856,4.4464 -2.47263,6.44185c0.34704,0 0.73745,-0.04338 1.17125,-0.13014c0.43379,-0.08676 0.86759,-0.2169 1.30138,-0.39042c1.73518,-0.52055 3.23177,-0.78083 4.48977,-0.78083c1.258,0 2.1039,0 2.5377,0c-0.08676,-0.08676 0.28197,-0.13014 1.10618,-0.13014c0.82421,0 1.49659,0.04338 2.01715,0.13014c0.43379,0 0.93266,0.02169 1.49659,0.06507c0.56393,0.04338 0.97604,0.15183 1.23631,0.32535c0,0.08676 0.02169,0.08676 0.06507,0c0.04338,-0.08676 0.10845,-0.04338 0.19521,0.13014c0,0.08676 0.10845,0.15183 0.32535,0.19521c0.2169,0.04338 0.45548,0.08676 0.71576,0.13014c0.26028,0.04338 0.52055,0.08676 0.78083,0.13014c0.26028,0.04338 0.39042,0.10845 0.39042,0.19521c0.43379,0.08676 0.60731,0.26028 0.52055,0.52055c-0.08676,0.26028 0.08676,0.43379 0.52055,0.52055v-0.78083c0.17352,0.08676 0.2169,0.34704 0.13014,0.78083c-0.08676,0.43379 0,0.65069 0.26028,0.65069c0.08676,0.08676 0.13014,0.39042 0.13014,0.91097c0,0.52055 -0.08676,0.86759 -0.26028,1.04111v0.13014c0,0 -0.04338,0 -0.13014,0l-0.13014,-0.13014l-0.13014,0.13014c-0.26028,-0.08676 -0.39042,0.08676 -0.39042,0.52055l0.13014,-0.13014v0.13014l0.26028,-0.26028c0.08676,0 0.13014,-0.04338 0.13014,-0.13014l0.39042,0.39042h-0.26028c-0.17352,0.17352 -0.26028,0.30366 -0.26028,0.39042c0,-0.08676 -0.08676,-0.13014 -0.26028,-0.13014h-0.13014h-0.13014l0.13014,-0.13014c0.08676,0 0.13014,-0.02169 0.13014,-0.06507c0,-0.04338 0.04338,-0.06507 0.13014,-0.06507h-0.26028l-0.39042,0.39042M289.98451,262.15555c-1.9087,0.43379 -3.81739,1.19294 -5.72609,2.27742c-1.9087,1.08449 -3.77401,2.27742 -5.59595,3.57881c-1.56166,1.04111 -2.92811,1.99546 -4.09936,2.86304c-1.17125,0.86759 -2.21235,1.73518 -3.12332,2.60277c-0.91097,0.86759 -1.77856,1.80025 -2.60277,2.79798c-0.82421,0.99773 -1.75687,2.19066 -2.79798,3.57881c-0.34704,0.60731 -0.60731,1.04111 -0.78083,1.30138c-0.17352,0.26028 -0.32535,0.47717 -0.45548,0.65069c-0.13014,0.17352 -0.28197,0.4121 -0.45548,0.71576c-0.17352,0.30366 -0.43379,0.75914 -0.78083,1.36645l-1.04111,2.73291c-0.34704,0.52055 -0.65069,1.36645 -0.91097,2.5377c-0.26028,1.17125 -0.45548,2.40756 -0.58562,3.70894c-0.13014,1.30138 -0.15183,2.60277 -0.06507,3.90415c0.08676,1.30138 0.39042,2.38587 0.91097,3.25346c0.17352,0.43379 0.69407,0.60731 1.56166,0.52055c1.73518,-0.26028 3.10163,-0.86759 4.09936,-1.82194c0.99773,-0.95435 2.14728,-2.16897 3.44867,-3.64388c0,-0.17352 0.10845,-0.30366 0.32535,-0.39042c0.2169,-0.08676 0.4121,-0.2169 0.58562,-0.39042c0.26028,0 0.39042,-0.13014 0.39042,-0.39042c0,-0.26028 0.08676,-0.43379 0.26028,-0.52055c0.43379,-0.78083 0.95435,-1.49659 1.56166,-2.14728c0.60731,-0.65069 1.04111,-1.32307 1.30138,-2.01715c0.52055,-0.60731 0.93266,-1.10618 1.23631,-1.49659c0.30366,-0.39042 0.56393,-0.78083 0.78083,-1.17125c0.2169,-0.39042 0.4121,-0.78083 0.58562,-1.17125c0.17352,-0.39042 0.43379,-0.88928 0.78083,-1.49659c0.17352,-0.17352 0.26028,-0.30366 0.26028,-0.39042c0,-0.08676 0.08676,-0.2169 0.26028,-0.39042c1.12787,-2.08221 2.06052,-3.77401 2.79798,-5.0754c0.73745,-1.30138 1.43152,-2.55939 2.08221,-3.77401c0.65069,-1.21463 1.32307,-2.5377 2.01715,-3.96922c0.69407,-1.43152 1.56166,-3.27515 2.60277,-5.53088c0,-0.08676 0.08676,-0.23859 0.26028,-0.45548c0.17352,-0.2169 0.2169,-0.32535 0.13014,-0.32535l0.78083,-1.82194M287.77215,233.91551c0.95435,-0.43379 1.97377,-1.0628 3.05825,-1.88701c1.08449,-0.82421 2.14728,-1.53997 3.18839,-2.14728c0.69407,-0.78083 1.58335,-1.67011 2.66784,-2.66784c1.08449,-0.99773 2.06052,-1.97377 2.92811,-2.92811l2.21235,-2.47263c1.12787,-1.04111 2.08221,-2.19066 2.86304,-3.44867c0.78083,-1.258 1.56166,-2.49432 2.34249,-3.70894c0.43379,-0.43379 0.65069,-0.86759 0.65069,-1.30138c0.08676,-0.34704 0.26028,-0.71576 0.52055,-1.10618c0.26028,-0.39042 0.39042,-0.80252 0.39042,-1.23631c0.08676,-1.64842 -0.17352,-2.86304 -0.78083,-3.64388c-0.60731,-0.78083 -1.43152,-1.04111 -2.47263,-0.78083c-0.86759,0.17352 -1.6918,0.629 -2.47263,1.36645c-0.78083,0.73745 -1.51828,1.32307 -2.21235,1.75687c-1.82194,1.30138 -3.55712,2.81967 -5.20554,4.55484c-1.64842,1.73518 -3.07994,3.6005 -4.29457,5.59595c-1.21463,1.82194 -2.34249,3.81739 -3.3836,5.98637c-0.60731,1.38814 -1.10618,2.58108 -1.49659,3.57881c-0.39042,0.99773 -0.45548,2.27742 -0.19521,3.83908c0.26028,0.34704 0.45548,0.60731 0.58562,0.78083c0.13014,0.17352 0.49886,0.13014 1.10618,-0.13014M278.01177,231.05247c0,0.08676 -0.04338,0.13014 -0.13014,0.13014zM327.72464,210.62074c0,-0.08676 0.04338,-0.17352 0.13014,-0.26028c0.60731,-0.43379 1.08449,-0.86759 1.43152,-1.30138c0.34704,-0.43379 0.82421,-0.82421 1.43152,-1.17125v0.13014l0.26028,-0.26028c0.95435,-2.34249 2.55939,-4.33795 4.81512,-5.98637c0.60731,-0.60731 1.30138,-1.21463 2.08221,-1.82194c0.78083,-0.60731 1.51828,-1.04111 2.21235,-1.30138l1.82194,-0.78083c0.52055,-0.08676 1.01942,-0.15183 1.49659,-0.19521c0.47717,-0.04338 0.97604,-0.15183 1.49659,-0.32535c0,0 0.08676,-0.04338 0.26028,-0.13014h0.26028c0.26028,-0.08676 0.45548,-0.08676 0.58562,0c0.13014,0.08676 0.32535,0.13014 0.58562,0.13014c0.34704,0.08676 0.69407,0.10845 1.04111,0.06507c0.34704,-0.04338 0.73745,0.02169 1.17125,0.19521c0.08676,0 0.13014,0.08676 0.13014,0.26028c0,0 0.08676,0 0.26028,0c0.34704,0.08676 0.75914,0.26028 1.23631,0.52055c0.47717,0.26028 0.80252,0.39042 0.97604,0.39042c0.17352,0.34704 0.26028,0.47717 0.26028,0.39042c0.78083,0.86759 1.43152,1.9087 1.95208,3.12332c0.52055,1.21463 0.56393,2.55939 0.13014,4.03429c-0.26028,2.68953 -0.78083,5.27061 -1.56166,7.74323c-0.78083,2.47263 -1.38814,4.14274 -1.82194,5.01033l3.12332,-1.04111c1.30138,-0.26028 2.12559,-0.56393 2.47263,-0.91097c1.04111,-0.43379 1.88701,-0.86759 2.5377,-1.30138c0.65069,-0.43379 1.49659,-0.86759 2.5377,-1.30138c0.17352,0 0.28197,-0.13014 0.32535,-0.39042c0.04338,-0.26028 0.15183,-0.39042 0.32535,-0.39042c0.60731,-0.26028 0.99773,-0.43379 1.17125,-0.52055c0.17352,-0.08676 0.30366,-0.17352 0.39042,-0.26028c0.08676,-0.08676 0.2169,-0.19521 0.39042,-0.32535c0.17352,-0.13014 0.52055,-0.32535 1.04111,-0.58562c0.17352,-0.17352 0.30366,-0.34704 0.39042,-0.52055c0.08676,-0.17352 0.2169,-0.30366 0.39042,-0.39042c0.17352,0.17352 0.36873,0.02169 0.58562,-0.45548c0.2169,-0.47717 0.4121,-0.71576 0.58562,-0.71576c0,0.08676 -0.02169,0.13014 -0.06507,0.13014c-0.04338,0 -0.02169,0.08676 0.06507,0.26028c0.43379,0 0.75914,-0.15183 0.97604,-0.45548c0.2169,-0.30366 0.54224,-0.54224 0.97604,-0.71576c-0.08676,0.17352 -0.2169,0.28197 -0.39042,0.32535c-0.17352,0.04338 -0.26028,0.15183 -0.26028,0.32535c0.34704,-0.08676 0.58562,-0.2169 0.71576,-0.39042c0.13014,-0.17352 0.32535,-0.34704 0.58562,-0.52055c-0.08676,0 -0.13014,0.13014 -0.13014,0.39042c0.26028,0 0.52055,-0.08676 0.78083,-0.26028c0.08676,0.08676 0.06507,0.15183 -0.06507,0.19521c-0.13014,0.04338 -0.19521,0.15183 -0.19521,0.32535c0.26028,-0.08676 0.56393,-0.13014 0.91097,-0.13014c0.08676,0.17352 0.13014,0.32535 0.13014,0.45548c0,0.13014 0,0.10845 0,-0.06507c0.17352,0 0.17352,0.08676 0,0.26028c-0.17352,0.17352 -0.08676,0.34704 0.26028,0.52055l-0.65069,0.65069c0,0.08676 0.06507,0.13014 0.19521,0.13014c0.13014,0 0.19521,-0.04338 0.19521,-0.13014c0,0.26028 -0.15183,0.43379 -0.45548,0.52055c-0.30366,0.08676 -0.45548,0.34704 -0.45548,0.78083l-0.26028,0.52055c0.08676,0.08676 0.17352,0.08676 0.26028,0c0.08676,0.08676 0.04338,0.2169 -0.13014,0.39042c0,0.17352 -0.06507,0.28197 -0.19521,0.32535c-0.13014,0.04338 -0.15183,0.06507 -0.06507,0.06507l-1.43152,1.17125c-0.08676,0.08676 -0.08676,0.13014 0,0.13014c-0.43379,0.34704 -0.82421,0.71576 -1.17125,1.10618c-0.34704,0.39042 -0.78083,0.80252 -1.30138,1.23631c-0.52055,0.43379 -0.97604,0.80252 -1.36645,1.10618c-0.39042,0.30366 -0.93266,0.67238 -1.62673,1.10618l-0.78083,0.52055c-1.73518,0.95435 -3.14501,1.67011 -4.2295,2.14728c-1.08449,0.47717 -2.1039,0.8459 -3.05825,1.10618c-0.95435,0.26028 -2.01715,0.49886 -3.18839,0.71576c-1.17125,0.2169 -2.71122,0.58562 -4.61991,1.10618c-0.78083,0.95435 -1.30138,1.67011 -1.56166,2.14728c-0.26028,0.47717 -0.47717,0.8459 -0.65069,1.10618c-0.17352,0.26028 -0.39042,0.56393 -0.65069,0.91097c-0.26028,0.34704 -0.73745,0.86759 -1.43152,1.56166c0,0.08676 -0.04338,0.17352 -0.13014,0.26028c-0.95435,0.95435 -2.01715,1.93039 -3.18839,2.92811c-1.17125,0.99773 -2.27742,1.97377 -3.31853,2.92811c-0.95435,0.60731 -2.06052,1.19294 -3.31853,1.75687c-1.258,0.56393 -2.5377,0.8459 -3.83908,0.8459c-0.69407,0 -1.51828,-0.02169 -2.47263,-0.06507c-0.95435,-0.04338 -1.73518,-0.19521 -2.34249,-0.45548c-1.30138,-0.43379 -2.21235,-1.04111 -2.73291,-1.82194l-0.52055,-1.04111c-0.43379,-0.78083 -0.73745,-1.43152 -0.91097,-1.95208c-0.17352,-0.52055 -0.26028,-1.34476 -0.26028,-2.47263v-1.56166c0.08676,-0.86759 0.08676,-1.27969 0,-1.23631c-0.08676,0.04338 -0.08676,-0.23859 0,-0.8459c0.17352,-0.34704 0.23859,-0.69407 0.19521,-1.04111c-0.04338,-0.34704 -0.02169,-0.60731 0.06507,-0.78083c0.17352,-0.52055 0.30366,-1.04111 0.39042,-1.56166c0.08676,-0.52055 0.2169,-0.99773 0.39042,-1.43152c0.08676,-0.08676 0.13014,-0.17352 0.13014,-0.26028c0.26028,-0.26028 0.43379,-0.58562 0.52055,-0.97604c0.08676,-0.39042 0.2169,-0.75914 0.39042,-1.10618c0.95435,-2.16897 1.80025,-3.94753 2.5377,-5.33567c0.73745,-1.38814 1.80025,-2.9498 3.18839,-4.68498c0,0.17352 0.06507,0.13014 0.19521,-0.13014c0.13014,-0.26028 0.23859,-0.34704 0.32535,-0.26028c0,-0.08676 0.04338,-0.13014 0.13014,-0.13014M343.99194,203.7234c0,0 -0.08676,0.04338 -0.26028,0.13014c-1.21463,0.78083 -2.38587,1.77856 -3.51374,2.99318c-1.12787,1.21463 -1.99546,2.55939 -2.60277,4.03429c-0.26028,0.43379 -0.67238,1.17125 -1.23631,2.21235c-0.56393,1.04111 -0.88928,1.86532 -0.97604,2.47263c-0.08676,1.12787 0.04338,2.06052 0.39042,2.79798c0.34704,0.73745 1.04111,1.23631 2.08221,1.49659c0.43379,0 0.71576,0.04338 0.8459,0.13014c0.13014,0.08676 0.32535,0.2169 0.58562,0.39042c0.17352,0 0.28197,0.02169 0.32535,0.06507c0.04338,0.04338 0.10845,0.06507 0.19521,0.06507c0.60731,-0.08676 1.04111,-0.10845 1.30138,-0.06507c0.26028,0.04338 0.69407,0.02169 1.30138,-0.06507c0.95435,-1.99546 2.01715,-4.16443 3.18839,-6.50692c1.17125,-2.34249 1.84363,-4.6416 2.01715,-6.89734c0.17352,-1.04111 0.2169,-1.95208 0.13014,-2.73291c-0.08676,-0.78083 -0.47717,-1.30138 -1.17125,-1.56166c-0.34704,0 -0.43379,0 -0.26028,0c0.17352,0 0.08676,0.04338 -0.26028,0.13014v-0.13014c-0.34704,0 -0.47717,0.06507 -0.39042,0.19521c0.08676,0.13014 0,0.15183 -0.26028,0.06507c-0.26028,0.17352 -0.54224,0.28197 -0.8459,0.32535c-0.30366,0.04338 -0.58562,0.19521 -0.8459,0.45548v0.13014l0.26028,-0.13014M338.26585,225.58666c-1.64842,0.17352 -3.10163,0.08676 -4.35964,-0.26028c-1.258,-0.34704 -2.3208,-0.99773 -3.18839,-1.95208c-0.43379,-0.78083 -0.67238,-1.27969 -0.71576,-1.49659c-0.04338,-0.2169 0.02169,-0.71576 0.19521,-1.49659c-1.21463,1.21463 -2.06052,2.36418 -2.5377,3.44867c-0.47717,1.08449 -1.0628,2.7546 -1.75687,5.01033c-0.26028,0.95435 -0.23859,1.75687 0.06507,2.40756c0.30366,0.65069 0.71576,1.36645 1.23631,2.14728c0.34704,0 0.54224,0 0.58562,0c0.04338,0 0.06507,0 0.06507,0c0,0 0.04338,-0.02169 0.13014,-0.06507c0.08676,-0.04338 0.26028,-0.06507 0.52055,-0.06507c0.52055,-0.26028 1.10618,-0.49886 1.75687,-0.71576c0.65069,-0.2169 1.23631,-0.54224 1.75687,-0.97604c0.78083,-0.60731 1.38814,-1.04111 1.82194,-1.30138c0.43379,-0.26028 0.78083,-0.49886 1.04111,-0.71576c0.26028,-0.2169 0.56393,-0.47717 0.91097,-0.78083c0.34704,-0.30366 0.86759,-0.8459 1.56166,-1.62673c0,-0.08676 0.04338,-0.10845 0.13014,-0.06507c0.08676,0.04338 0.13014,0.02169 0.13014,-0.06507c-0.08676,-0.08676 0.02169,-0.34704 0.32535,-0.78083c0.30366,-0.43379 0.4121,-0.65069 0.32535,-0.65069zM366.24561,210.62074c0,-0.08676 0.04338,-0.17352 0.13014,-0.26028c0.60731,-0.43379 1.08449,-0.86759 1.43152,-1.30138c0.34704,-0.43379 0.82421,-0.82421 1.43152,-1.17125v0.13014l0.26028,-0.26028c0.95435,-2.34249 2.55939,-4.33795 4.81512,-5.98637c0.60731,-0.60731 1.30138,-1.21463 2.08221,-1.82194c0.78083,-0.60731 1.51828,-1.04111 2.21235,-1.30138l1.82194,-0.78083c0.52055,-0.08676 1.01942,-0.15183 1.49659,-0.19521c0.47717,-0.04338 0.97604,-0.15183 1.49659,-0.32535c0,0 0.08676,-0.04338 0.26028,-0.13014h0.26028c0.26028,-0.08676 0.45548,-0.08676 0.58562,0c0.13014,0.08676 0.32535,0.13014 0.58562,0.13014c0.34704,0.08676 0.69407,0.10845 1.04111,0.06507c0.34704,-0.04338 0.73745,0.02169 1.17125,0.19521c0.08676,0 0.13014,0.08676 0.13014,0.26028c0,0 0.08676,0 0.26028,0c0.34704,0.08676 0.75914,0.26028 1.23631,0.52055c0.47717,0.26028 0.80252,0.39042 0.97604,0.39042c0.17352,0.34704 0.26028,0.47717 0.26028,0.39042c0.78083,0.86759 1.43152,1.9087 1.95208,3.12332c0.52055,1.21463 0.56393,2.55939 0.13014,4.03429c-0.26028,2.68953 -0.78083,5.27061 -1.56166,7.74323c-0.78083,2.47263 -1.38814,4.14274 -1.82194,5.01033l3.12332,-1.04111c1.30138,-0.26028 2.12559,-0.56393 2.47263,-0.91097c1.04111,-0.43379 1.88701,-0.86759 2.5377,-1.30138c0.65069,-0.43379 1.49659,-0.86759 2.5377,-1.30138c0.17352,0 0.28197,-0.13014 0.32535,-0.39042c0.04338,-0.26028 0.15183,-0.39042 0.32535,-0.39042c0.60731,-0.26028 0.99773,-0.43379 1.17125,-0.52055c0.17352,-0.08676 0.30366,-0.17352 0.39042,-0.26028c0.08676,-0.08676 0.2169,-0.19521 0.39042,-0.32535c0.17352,-0.13014 0.52055,-0.32535 1.04111,-0.58562c0.17352,-0.17352 0.30366,-0.34704 0.39042,-0.52055c0.08676,-0.17352 0.2169,-0.30366 0.39042,-0.39042c0.17352,0.17352 0.36873,0.02169 0.58562,-0.45548c0.2169,-0.47717 0.4121,-0.71576 0.58562,-0.71576c0,0.08676 -0.02169,0.13014 -0.06507,0.13014c-0.04338,0 -0.02169,0.08676 0.06507,0.26028c0.43379,0 0.75914,-0.15183 0.97604,-0.45548c0.2169,-0.30366 0.54224,-0.54224 0.97604,-0.71576c-0.08676,0.17352 -0.2169,0.28197 -0.39042,0.32535c-0.17352,0.04338 -0.26028,0.15183 -0.26028,0.32535c0.34704,-0.08676 0.58562,-0.2169 0.71576,-0.39042c0.13014,-0.17352 0.32535,-0.34704 0.58562,-0.52055c-0.08676,0 -0.13014,0.13014 -0.13014,0.39042c0.26028,0 0.52055,-0.08676 0.78083,-0.26028c0.08676,0.08676 0.06507,0.15183 -0.06507,0.19521c-0.13014,0.04338 -0.19521,0.15183 -0.19521,0.32535c0.26028,-0.08676 0.56393,-0.13014 0.91097,-0.13014c0.08676,0.17352 0.13014,0.32535 0.13014,0.45548c0,0.13014 0,0.10845 0,-0.06507c0.17352,0 0.17352,0.08676 0,0.26028c-0.17352,0.17352 -0.08676,0.34704 0.26028,0.52055l-0.65069,0.65069c0,0.08676 0.06507,0.13014 0.19521,0.13014c0.13014,0 0.19521,-0.04338 0.19521,-0.13014c0,0.26028 -0.15183,0.43379 -0.45548,0.52055c-0.30366,0.08676 -0.45548,0.34704 -0.45548,0.78083l-0.26028,0.52055c0.08676,0.08676 0.17352,0.08676 0.26028,0c0.08676,0.08676 0.04338,0.2169 -0.13014,0.39042c0,0.17352 -0.06507,0.28197 -0.19521,0.32535c-0.13014,0.04338 -0.15183,0.06507 -0.06507,0.06507l-1.43152,1.17125c-0.08676,0.08676 -0.08676,0.13014 0,0.13014c-0.43379,0.34704 -0.82421,0.71576 -1.17125,1.10618c-0.34704,0.39042 -0.78083,0.80252 -1.30138,1.23631c-0.52055,0.43379 -0.97604,0.80252 -1.36645,1.10618c-0.39042,0.30366 -0.93266,0.67238 -1.62673,1.10618l-0.78083,0.52055c-1.73518,0.95435 -3.14501,1.67011 -4.2295,2.14728c-1.08449,0.47717 -2.1039,0.8459 -3.05825,1.10618c-0.95435,0.26028 -2.01715,0.49886 -3.18839,0.71576c-1.17125,0.2169 -2.71122,0.58562 -4.61991,1.10618c-0.78083,0.95435 -1.30138,1.67011 -1.56166,2.14728c-0.26028,0.47717 -0.47717,0.8459 -0.65069,1.10618c-0.17352,0.26028 -0.39042,0.56393 -0.65069,0.91097c-0.26028,0.34704 -0.73745,0.86759 -1.43152,1.56166c0,0.08676 -0.04338,0.17352 -0.13014,0.26028c-0.95435,0.95435 -2.01715,1.93039 -3.18839,2.92811c-1.17125,0.99773 -2.27742,1.97377 -3.31853,2.92811c-0.95435,0.60731 -2.06052,1.19294 -3.31853,1.75687c-1.258,0.56393 -2.5377,0.8459 -3.83908,0.8459c-0.69407,0 -1.51828,-0.02169 -2.47263,-0.06507c-0.95435,-0.04338 -1.73518,-0.19521 -2.34249,-0.45548c-1.30138,-0.43379 -2.21235,-1.04111 -2.73291,-1.82194l-0.52055,-1.04111c-0.43379,-0.78083 -0.73745,-1.43152 -0.91097,-1.95208c-0.17352,-0.52055 -0.26028,-1.34476 -0.26028,-2.47263v-1.56166c0.08676,-0.86759 0.08676,-1.27969 0,-1.23631c-0.08676,0.04338 -0.08676,-0.23859 0,-0.8459c0.17352,-0.34704 0.23859,-0.69407 0.19521,-1.04111c-0.04338,-0.34704 -0.02169,-0.60731 0.06507,-0.78083c0.17352,-0.52055 0.30366,-1.04111 0.39042,-1.56166c0.08676,-0.52055 0.2169,-0.99773 0.39042,-1.43152c0.08676,-0.08676 0.13014,-0.17352 0.13014,-0.26028c0.26028,-0.26028 0.43379,-0.58562 0.52055,-0.97604c0.08676,-0.39042 0.2169,-0.75914 0.39042,-1.10618c0.95435,-2.16897 1.80025,-3.94753 2.5377,-5.33567c0.73745,-1.38814 1.80025,-2.9498 3.18839,-4.68498c0,0.17352 0.06507,0.13014 0.19521,-0.13014c0.13014,-0.26028 0.23859,-0.34704 0.32535,-0.26028c0,-0.08676 0.04338,-0.13014 0.13014,-0.13014M382.51291,203.7234c0,0 -0.08676,0.04338 -0.26028,0.13014c-1.21463,0.78083 -2.38587,1.77856 -3.51374,2.99318c-1.12787,1.21463 -1.99546,2.55939 -2.60277,4.03429c-0.26028,0.43379 -0.67238,1.17125 -1.23631,2.21235c-0.56393,1.04111 -0.88928,1.86532 -0.97604,2.47263c-0.08676,1.12787 0.04338,2.06052 0.39042,2.79798c0.34704,0.73745 1.04111,1.23631 2.08221,1.49659c0.43379,0 0.71576,0.04338 0.8459,0.13014c0.13014,0.08676 0.32535,0.2169 0.58562,0.39042c0.17352,0 0.28197,0.02169 0.32535,0.06507c0.04338,0.04338 0.10845,0.06507 0.19521,0.06507c0.60731,-0.08676 1.04111,-0.10845 1.30138,-0.06507c0.26028,0.04338 0.69407,0.02169 1.30138,-0.06507c0.95435,-1.99546 2.01715,-4.16443 3.18839,-6.50692c1.17125,-2.34249 1.84363,-4.6416 2.01715,-6.89734c0.17352,-1.04111 0.2169,-1.95208 0.13014,-2.73291c-0.08676,-0.78083 -0.47717,-1.30138 -1.17125,-1.56166c-0.34704,0 -0.43379,0 -0.26028,0c0.17352,0 0.08676,0.04338 -0.26028,0.13014v-0.13014c-0.34704,0 -0.47717,0.06507 -0.39042,0.19521c0.08676,0.13014 0,0.15183 -0.26028,0.06507c-0.26028,0.17352 -0.54224,0.28197 -0.8459,0.32535c-0.30366,0.04338 -0.58562,0.19521 -0.8459,0.45548v0.13014l0.26028,-0.13014M376.78682,225.58666c-1.64842,0.17352 -3.10163,0.08676 -4.35964,-0.26028c-1.258,-0.34704 -2.3208,-0.99773 -3.18839,-1.95208c-0.43379,-0.78083 -0.67238,-1.27969 -0.71576,-1.49659c-0.04338,-0.2169 0.02169,-0.71576 0.19521,-1.49659c-1.21463,1.21463 -2.06052,2.36418 -2.5377,3.44867c-0.47717,1.08449 -1.0628,2.7546 -1.75687,5.01033c-0.26028,0.95435 -0.23859,1.75687 0.06507,2.40756c0.30366,0.65069 0.71576,1.36645 1.23631,2.14728c0.34704,0 0.54224,0 0.58562,0c0.04338,0 0.06507,0 0.06507,0c0,0 0.04338,-0.02169 0.13014,-0.06507c0.08676,-0.04338 0.26028,-0.06507 0.52055,-0.06507c0.52055,-0.26028 1.10618,-0.49886 1.75687,-0.71576c0.65069,-0.2169 1.23631,-0.54224 1.75687,-0.97604c0.78083,-0.60731 1.38814,-1.04111 1.82194,-1.30138c0.43379,-0.26028 0.78083,-0.49886 1.04111,-0.71576c0.26028,-0.2169 0.56393,-0.47717 0.91097,-0.78083c0.34704,-0.30366 0.86759,-0.8459 1.56166,-1.62673c0,-0.08676 0.04338,-0.10845 0.13014,-0.06507c0.08676,0.04338 0.13014,0.02169 0.13014,-0.06507c-0.08676,-0.08676 0.02169,-0.34704 0.32535,-0.78083c0.30366,-0.43379 0.4121,-0.65069 0.32535,-0.65069zM455,210.4906c0,0.26028 -0.02169,0.43379 -0.06507,0.52055c-0.04338,0.08676 -0.02169,0.2169 0.06507,0.39042l-0.26028,1.6918c-0.17352,0.34704 -0.34704,0.629 -0.52055,0.8459c-0.17352,0.2169 -0.26028,0.4121 -0.26028,0.58562c-0.34704,0.43379 -0.69407,0.82421 -1.04111,1.17125c-0.34704,0.34704 -0.60731,0.73745 -0.78083,1.17125c-0.08676,0 -0.13014,0.04338 -0.13014,0.13014c-0.08676,0.08676 -0.13014,0.17352 -0.13014,0.26028c0,0.08676 -0.04338,0.13014 -0.13014,0.13014l-0.26028,0.52055l-1.17125,1.30138l-0.39042,0.52055v0.13014c-0.08676,0 -0.17352,0.13014 -0.26028,0.39042c-0.43379,0.52055 -0.73745,0.88928 -0.91097,1.10618c-0.17352,0.2169 -0.32535,0.43379 -0.45548,0.65069c-0.13014,0.2169 -0.28197,0.45548 -0.45548,0.71576c-0.17352,0.26028 -0.52055,0.65069 -1.04111,1.17125c-0.52055,0.69407 -1.04111,1.38814 -1.56166,2.08221c-0.52055,0.69407 -1.08449,1.34476 -1.6918,1.95208l-0.39042,0.26028c-0.17352,0.26028 -0.32535,0.49886 -0.45548,0.71576c-0.13014,0.2169 -0.4121,0.45548 -0.8459,0.71576c-0.43379,0.60731 -0.73745,0.97604 -0.91097,1.10618c-0.17352,0.13014 -0.30366,0.23859 -0.39042,0.32535c-0.08676,0.08676 -0.19521,0.19521 -0.32535,0.32535c-0.13014,0.13014 -0.45548,0.49886 -0.97604,1.10618c-0.69407,0.17352 -1.12787,0.52055 -1.30138,1.04111c-0.69407,0.52055 -1.21463,0.95435 -1.56166,1.30138c-0.34704,0.34704 -0.67238,0.67238 -0.97604,0.97604c-0.30366,0.30366 -0.65069,0.60731 -1.04111,0.91097c-0.39042,0.30366 -0.93266,0.629 -1.62673,0.97604c-0.52055,0.26028 -0.86759,0.45548 -1.04111,0.58562c-0.17352,0.13014 -0.32535,0.26028 -0.45548,0.39042c-0.13014,0.13014 -0.28197,0.26028 -0.45548,0.39042c-0.17352,0.13014 -0.52055,0.32535 -1.04111,0.58562c-0.26028,0.08676 -0.65069,0.17352 -1.17125,0.26028c-0.52055,0.08676 -1.0628,0.17352 -1.62673,0.26028c-0.56393,0.08676 -1.10618,0.15183 -1.62673,0.19521c-0.52055,0.04338 -0.91097,0.06507 -1.17125,0.06507c-0.95435,-0.08676 -1.73518,-0.19521 -2.34249,-0.32535c-0.60731,-0.13014 -1.258,-0.80252 -1.95208,-2.01715c-0.69407,-0.69407 -1.14956,-1.4749 -1.36645,-2.34249c-0.2169,-0.86759 -0.4121,-1.95208 -0.58562,-3.25346c-0.08676,0.34704 -0.10845,0.73745 -0.06507,1.17125c0.04338,0.43379 0.10845,0.86759 0.19521,1.30138c-0.17352,-0.78083 -0.28197,-1.56166 -0.32535,-2.34249c-0.04338,-0.78083 -0.02169,-1.60504 0.06507,-2.47263c-0.69407,0.78083 -1.45321,1.53997 -2.27742,2.27742c-0.82421,0.73745 -1.67011,1.49659 -2.5377,2.27742c-0.95435,0.86759 -1.73518,1.58335 -2.34249,2.14728c-0.60731,0.56393 -1.4749,1.19294 -2.60277,1.88701c-0.17352,0 -0.26028,0.04338 -0.26028,0.13014c-0.60731,0.17352 -1.0628,0.4121 -1.36645,0.71576c-0.30366,0.30366 -0.71576,0.54224 -1.23631,0.71576c-0.69407,0.26028 -1.30138,0.52055 -1.82194,0.78083c-0.52055,0.26028 -1.12787,0.30366 -1.82194,0.13014c-0.95435,-0.17352 -2.01715,-0.4121 -3.18839,-0.71576c-1.17125,-0.30366 -2.1039,-0.75914 -2.79798,-1.36645c-0.26028,-0.43379 -0.56393,-0.8459 -0.91097,-1.23631c-0.34704,-0.39042 -0.60731,-0.88928 -0.78083,-1.49659c-0.26028,-0.43379 -0.45548,-1.01942 -0.58562,-1.75687c-0.13014,-0.73745 -0.15183,-1.45321 -0.06507,-2.14728c0.43379,-2.68953 0.95435,-5.01033 1.56166,-6.9624c0.60731,-1.95208 1.43152,-3.7957 2.47263,-5.53088c0.08676,-0.60731 0.30366,-1.12787 0.65069,-1.56166c0.34704,-0.43379 0.60731,-0.99773 0.78083,-1.6918c1.12787,-1.56166 2.25573,-3.07994 3.3836,-4.55484c1.12787,-1.4749 2.29911,-2.90642 3.51374,-4.29457c0.69407,-0.69407 1.40983,-1.43152 2.14728,-2.21235c0.73745,-0.78083 1.58335,-1.56166 2.5377,-2.34249c0.08676,0 0.17352,-0.02169 0.26028,-0.06507c0.08676,-0.04338 0.2169,-0.06507 0.39042,-0.06507c0.17352,-0.17352 0.36873,-0.32535 0.58562,-0.45548c0.2169,-0.13014 0.4121,-0.28197 0.58562,-0.45548c1.21463,-0.60731 2.38587,-1.17125 3.51374,-1.6918c1.12787,-0.52055 2.29911,-0.91097 3.51374,-1.17125c0.69407,-0.08676 1.43152,-0.13014 2.21235,-0.13014c0.78083,0 1.51828,0.13014 2.21235,0.39042l3.25346,1.43152c0.17352,0.69407 0.4121,1.23631 0.71576,1.62673c0.30366,0.39042 0.54224,0.88928 0.71576,1.49659l1.43152,-1.95208l3.51374,-5.0754c0,-0.17352 0.06507,-0.34704 0.19521,-0.52055c0.13014,-0.17352 0.28197,-0.39042 0.45548,-0.65069c1.12787,-1.82194 2.03883,-3.23177 2.73291,-4.2295c0.69407,-0.99773 1.27969,-1.80025 1.75687,-2.40756c0.47717,-0.60731 0.91097,-1.10618 1.30138,-1.49659c0.39042,-0.39042 0.80252,-0.88928 1.23631,-1.49659c0.52055,-0.78083 1.19294,-1.67011 2.01715,-2.66784c0.82421,-0.99773 1.58335,-2.06052 2.27742,-3.18839c1.38814,-2.16897 2.68953,-3.36191 3.90415,-3.57881c1.21463,-0.2169 2.12559,0.4121 2.73291,1.88701c0,0.08676 0.02169,0.13014 0.06507,0.13014c0.04338,0 0.06507,0.08676 0.06507,0.26028l0.78083,1.56166c0,0.17352 -0.10845,0.26028 -0.32535,0.26028c-0.2169,0 -0.32535,0.08676 -0.32535,0.26028c0,0.17352 0.08676,0.23859 0.26028,0.19521c0.17352,-0.04338 0.26028,-0.02169 0.26028,0.06507l-1.17125,1.95208c-0.08676,0.17352 -0.10845,0.30366 -0.06507,0.39042c0.04338,0.08676 0.02169,0.17352 -0.06507,0.26028l-4.16443,5.33567c-0.86759,1.56166 -1.6918,2.90642 -2.47263,4.03429c-0.78083,1.12787 -1.56166,2.25573 -2.34249,3.3836c-0.78083,1.12787 -1.60504,2.3208 -2.47263,3.57881c-0.86759,1.258 -1.82194,2.71122 -2.86304,4.35964v0.13014c-0.78083,1.4749 -1.56166,2.77629 -2.34249,3.90415c-0.17352,0.17352 -0.34704,0.43379 -0.52055,0.78083c-0.26028,0.60731 -0.47717,1.01942 -0.65069,1.23631c-0.17352,0.2169 -0.32535,0.4121 -0.45548,0.58562c-0.13014,0.17352 -0.28197,0.4121 -0.45548,0.71576c-0.17352,0.30366 -0.43379,0.8459 -0.78083,1.62673c-0.34704,0.69407 -0.629,1.19294 -0.8459,1.49659c-0.2169,0.30366 -0.45548,0.67238 -0.71576,1.10618c-0.26028,0.43379 -0.58562,0.99773 -0.97604,1.6918c-0.39042,0.69407 -0.88928,1.73518 -1.49659,3.12332c-0.34704,0.78083 -0.65069,1.51828 -0.91097,2.21235c-0.17352,0.34704 -0.30366,0.65069 -0.39042,0.91097c-0.08676,0.26028 -0.17352,0.47717 -0.26028,0.65069l-0.26028,0.78083c-0.26028,1.12787 -0.43379,1.93039 -0.52055,2.40756c-0.08676,0.47717 -0.15183,0.88928 -0.19521,1.23631c-0.04338,0.34704 -0.04338,0.71576 0,1.10618c0.04338,0.39042 0.10845,1.0628 0.19521,2.01715c0.26028,0.26028 0.39042,0.43379 0.39042,0.52055c0,0.08676 -0.02169,0.15183 -0.06507,0.19521c-0.04338,0.04338 -0.06507,0.08676 -0.06507,0.13014c0,0.04338 0.08676,0.15183 0.26028,0.32535c0.17352,0 0.34704,0.02169 0.52055,0.06507c0.17352,0.04338 0.39042,0.06507 0.65069,0.06507c0.26028,0 0.56393,-0.08676 0.91097,-0.26028c0.34704,-0.17352 0.82421,-0.47717 1.43152,-0.91097c1.30138,-0.95435 2.42925,-1.86532 3.3836,-2.73291c0.95435,-0.86759 1.86532,-1.71349 2.73291,-2.5377c0.86759,-0.82421 1.73518,-1.71349 2.60277,-2.66784c0.86759,-0.95435 1.82194,-1.99546 2.86304,-3.12332c0.69407,-0.78083 1.40983,-1.62673 2.14728,-2.5377c0.73745,-0.91097 1.45321,-1.80025 2.14728,-2.66784c0.60731,-0.86759 1.04111,-1.43152 1.30138,-1.6918c0.26028,-0.26028 0.45548,-0.43379 0.58562,-0.52055c0.13014,-0.08676 0.30366,-0.23859 0.52055,-0.45548c0.2169,-0.2169 0.629,-0.75914 1.23631,-1.62673c0.08676,0 0.08676,0.04338 0,0.13014c-0.08676,0.08676 -0.04338,0.13014 0.13014,0.13014v-0.26028l0.13014,0.13014c0,-0.08676 0.15183,-0.34704 0.45548,-0.78083c0.30366,-0.43379 0.67238,-0.88928 1.10618,-1.36645c0.43379,-0.47717 0.91097,-0.8459 1.43152,-1.10618c0.52055,-0.26028 0.95435,-0.30366 1.30138,-0.13014c0.08676,0.17352 0.19521,0.26028 0.32535,0.26028c0.13014,0 0.23859,0.08676 0.32535,0.26028c0,-0.17352 0.08676,-0.26028 0.26028,-0.26028c-0.17352,0.43379 -0.13014,0.58562 0.13014,0.45548c0.26028,-0.13014 0.30366,0.02169 0.13014,0.45548c0.17352,0.17352 0.28197,0.2169 0.32535,0.13014c0.04338,-0.08676 -0.02169,-0.04338 -0.19521,0.13014c0.17352,0.17352 0.26028,0.2169 0.26028,0.13014M403.85561,233.65524c0.95435,-0.52055 1.75687,-0.99773 2.40756,-1.43152c0.65069,-0.43379 1.23631,-0.99773 1.75687,-1.6918c0.43379,-0.17352 0.91097,-0.49886 1.43152,-0.97604c0.52055,-0.47717 0.99773,-0.93266 1.43152,-1.36645l1.56166,-1.6918c0.43379,-0.60731 0.91097,-1.0628 1.43152,-1.36645c0.52055,-0.30366 0.99773,-0.67238 1.43152,-1.10618c0.34704,-0.43379 0.73745,-0.88928 1.17125,-1.36645c0.43379,-0.47717 0.86759,-0.93266 1.30138,-1.36645c0.52055,-0.52055 0.97604,-1.14956 1.36645,-1.88701c0.39042,-0.73745 0.93266,-1.49659 1.62673,-2.27742c0.43379,-0.52055 0.69407,-0.95435 0.78083,-1.30138c0.08676,-0.08676 0.15183,-0.23859 0.19521,-0.45548c0.04338,-0.2169 0.10845,-0.32535 0.19521,-0.32535c0.08676,-0.17352 0.26028,-0.4121 0.52055,-0.71576c0.26028,-0.30366 0.47717,-0.629 0.65069,-0.97604c0,0 0.08676,-0.17352 0.26028,-0.52055c0,-0.34704 0.06507,-0.75914 0.19521,-1.23631c0.13014,-0.47717 0.28197,-0.8459 0.45548,-1.10618c0.26028,-0.43379 0.4121,-0.93266 0.45548,-1.49659c0.04338,-0.56393 -0.04338,-1.08449 -0.26028,-1.56166c-0.2169,-0.47717 -0.54224,-0.86759 -0.97604,-1.17125c-0.43379,-0.30366 -0.99773,-0.4121 -1.6918,-0.32535c-0.69407,0.08676 -1.45321,0.36873 -2.27742,0.8459c-0.82421,0.47717 -1.45321,0.8459 -1.88701,1.10618c-0.60731,0.52055 -1.258,0.99773 -1.95208,1.43152c-0.69407,0.43379 -1.258,0.86759 -1.6918,1.30138c-1.04111,1.12787 -2.06052,2.23404 -3.05825,3.31853c-0.99773,1.08449 -1.93039,2.19066 -2.79798,3.31853c-1.21463,1.9087 -2.27742,3.75232 -3.18839,5.53088c-0.91097,1.77856 -1.71349,3.88246 -2.40756,6.31171c-0.26028,0.95435 -0.45548,1.71349 -0.58562,2.27742c-0.13014,0.56393 -0.15183,1.32307 -0.06507,2.27742c0.60731,0.17352 1.0628,0.28197 1.36645,0.32535c0.30366,0.04338 0.58562,-0.06507 0.8459,-0.32535z"></path><g><path d="M310.91612,275.82876c-1.05386,0 -2.01145,0.18746 -2.87277,0.56239c-0.86132,0.37493 -1.59598,0.94239 -2.20398,1.70238c-0.60799,0.75999 -1.07919,1.70745 -1.41359,2.84237c-0.3344,1.13492 -0.50159,2.45224 -0.50159,3.95196c0,1.49972 0.1672,2.81197 0.50159,3.93676c0.3344,1.12479 0.80559,2.06718 1.41359,2.82717c0.60799,0.75999 1.34265,1.33252 2.20398,1.71758c0.86132,0.38506 1.81891,0.57759 2.87277,0.57759c1.03359,0 1.99118,-0.1824 2.87277,-0.54719c0.88159,-0.3648 1.64665,-0.93226 2.29518,-1.70238l1.45918,1.06399c-0.81066,1.03359 -1.77838,1.80371 -2.90317,2.31038c-1.12479,0.50666 -2.35598,0.75999 -3.69356,0.75999c-1.27679,0 -2.46237,-0.23306 -3.55676,-0.69919c-1.09439,-0.46613 -2.04185,-1.15519 -2.84237,-2.06718c-0.80052,-0.91199 -1.42878,-2.05198 -1.88478,-3.41996c-0.456,-1.36799 -0.68399,-2.95384 -0.68399,-4.75755c0,-1.80371 0.228,-3.38956 0.68399,-4.75755c0.456,-1.36799 1.08426,-2.51811 1.88478,-3.45036c0.80052,-0.93226 1.74798,-1.63145 2.84237,-2.09758c1.09439,-0.46613 2.27998,-0.69919 3.55676,-0.69919c1.41865,0 2.70557,0.27866 3.86076,0.83599c1.15519,0.55733 2.11784,1.38319 2.88797,2.47757l-1.42878,1.09439c-0.64853,-0.85119 -1.42878,-1.47438 -2.34078,-1.86958c-0.91199,-0.3952 -1.91518,-0.59279 -3.00957,-0.59279z"></path><path d="M333.82722,274.33918c0.79039,0 1.51492,0.12667 2.17358,0.38c0.65866,0.25333 1.22612,0.60799 1.70238,1.06399c0.47626,0.456 0.84106,1.01332 1.09439,1.67198c0.25333,0.65866 0.38,1.38319 0.38,2.17358c0,0.66879 -0.076,1.25145 -0.228,1.74798c-0.152,0.49653 -0.3496,0.92719 -0.59279,1.29199c-0.2432,0.3648 -0.53199,0.67893 -0.86639,0.94239c-0.3344,0.26346 -0.68399,0.49653 -1.04879,0.69919c0.44586,0.08107 0.92719,0.2584 1.44398,0.53199c0.51679,0.2736 0.99812,0.63333 1.44398,1.07919c0.44586,0.44586 0.81572,0.97786 1.10959,1.59598c0.29386,0.61813 0.4408,1.31225 0.4408,2.08238c0,1.94558 -0.60293,3.39463 -1.80878,4.34715c-1.20585,0.95252 -2.8221,1.42878 -4.84875,1.42878h-7.96472v-21.03658h7.56952M328.17288,293.52138h6.38393c1.29705,0 2.36104,-0.32933 3.19197,-0.98799c0.83092,-0.65866 1.24639,-1.62638 1.24639,-2.90317c0,-0.62826 -0.14187,-1.20079 -0.4256,-1.71758c-0.28373,-0.51679 -0.65359,-0.95252 -1.10959,-1.30719c-0.456,-0.35466 -0.97279,-0.62826 -1.55038,-0.82079c-0.57759,-0.19253 -1.15012,-0.2888 -1.71758,-0.2888h-6.01914v8.02552M333.82722,283.70228c0.44586,0 0.88159,-0.11147 1.30719,-0.3344c0.4256,-0.22293 0.79546,-0.51173 1.10959,-0.86639c0.31413,-0.35466 0.56746,-0.75999 0.75999,-1.21599c0.19253,-0.456 0.2888,-0.91706 0.2888,-1.38319c0,-1.05386 -0.3192,-1.92531 -0.95759,-2.61437c-0.63839,-0.68906 -1.47438,-1.03359 -2.50797,-1.03359h-5.65434v7.44792z"></path><path d="M354.54953,274.33918c1.49972,0 2.90317,0.26853 4.21036,0.80559c1.30719,0.53706 2.44717,1.27679 3.41996,2.21918c0.97279,0.94239 1.73785,2.04691 2.29518,3.31356c0.55733,1.26665 0.83599,2.63971 0.83599,4.11916c0,1.47945 -0.27866,2.86264 -0.83599,4.14956c-0.55733,1.28692 -1.32239,2.40664 -2.29518,3.35916c-0.97279,0.95252 -2.11278,1.70238 -3.41996,2.24958c-1.30719,0.54719 -2.71064,0.82079 -4.21036,0.82079h-5.35034v-21.03658h5.35034M351.14477,293.49098h3.43516c1.21599,0 2.35091,-0.21786 3.40476,-0.65359c1.05386,-0.43573 1.97091,-1.03866 2.75117,-1.80878c0.78026,-0.77013 1.39839,-1.68212 1.85438,-2.73597c0.456,-1.05386 0.68399,-2.19891 0.68399,-3.43516c0,-1.29705 -0.228,-2.47251 -0.68399,-3.52636c-0.456,-1.05386 -1.07412,-1.95571 -1.85438,-2.70557c-0.78026,-0.74986 -1.69732,-1.32745 -2.75117,-1.73278c-1.05386,-0.40533 -2.18878,-0.60799 -3.40476,-0.60799h-3.43516z"></path></g></g></g></svg>
