<?xml version="1.0" encoding="iso-8859-1"?>
<!-- Generator: Adobe Illustrator 16.0.0, SVG Export Plug-In . SVG Version: 6.00 Build 0)  -->
<!DOCTYPE svg PUBLIC "-//W3C//DTD SVG 1.1//EN" "http://www.w3.org/Graphics/SVG/1.1/DTD/svg11.dtd">
<svg xmlns:mydata="http://www.w3.org/2000/svg" mydata:contrastcolor="003057" mydata:template="contrast" mydata:presentation="2.5" mydata:layouttype="" mydata:specialfontid="" mydata:id1="456" mydata:id2="029" mydata:companyname="apanage" mydata:companytagline="CBD shop" version="1.1" xmlns="http://www.w3.org/2000/svg" xmlns:xlink="http://www.w3.org/1999/xlink" viewBox="0 0 550 470"><g fill="#418FDE" fill-rule="nonzero" stroke="none" stroke-width="1" stroke-linecap="butt" stroke-linejoin="miter" stroke-miterlimit="10" stroke-dasharray="" stroke-dashoffset="0" font-family="none" font-weight="none" font-size="none" text-anchor="none" style="mix-blend-mode: normal"><g><path d="M135.6399,225.2553l-2.83926,17.82421h-12.1457l7.09814,-41.9053c2.34852,-6.2043 6.81772,-10.83123 13.40759,-13.8808l-3.73309,26.60487h8.62292l-4.36404,-30.33797c-4.83725,1.78768 -8.92087,4.41662 -12.25086,7.88682l4.36404,-25.60587h15.98395l11.56734,69.03596c-3.75062,-3.85578 -8.2724,-7.06309 -13.56533,-9.62192h-12.1457M150.5197,243.07951l-2.15573,-13.98596c6.73009,3.75062 11.51476,8.41261 14.35401,13.98596zM193.89721,184.45416c0,-1.99799 -0.61342,-3.61041 -1.84026,-4.83725c-1.19179,-1.26189 -2.8042,-1.89284 -4.83725,-1.89284h-7.04556c-4.66199,2.0681 -8.51777,5.24035 -11.56734,9.51676l-0.05258,0.31547v-21.71504h18.40258c5.64346,0 10.14771,1.78768 13.51275,5.36304c3.11968,3.43515 4.67951,7.79919 4.67951,13.09212v11.19928c0,5.11767 -1.77015,9.48171 -5.31046,13.09212c-2.45368,2.48873 -5.29293,4.11867 -8.51776,4.88983c-3.08462,-3.54031 -5.6084,-7.22082 -7.57135,-11.04155h3.4702c1.85778,0 3.43515,-0.64847 4.73209,-1.94542c1.29694,-1.29694 1.94542,-2.87431 1.94542,-4.73209v-11.30444M180.17414,202.4361c2.0681,4.17125 4.4692,8.02703 7.2033,11.56734h-7.2033v44.32407h-11.61991v-63.46275c2.0681,-6.06409 5.9414,-10.60339 11.61991,-13.61791zM180.17414,270h-11.61991v-11.67249h11.61991zM226.49606,225.2553l-2.83926,17.82421h-12.1457l7.09814,-41.9053c2.34852,-6.2043 6.81772,-10.83123 13.40759,-13.8808l-3.73309,26.60487h8.62292l-4.36404,-30.33797c-4.83725,1.78768 -8.92087,4.41662 -12.25086,7.88682l4.36404,-25.60587h15.98395l11.56734,69.03596c-3.75062,-3.85578 -8.2724,-7.06309 -13.56533,-9.62192h-12.1457M241.37586,243.07951l-2.15573,-13.98596c6.73009,3.75062 11.51476,8.41261 14.35401,13.98596zM272.71282,165.78868l15.45817,51.79011v0.05258c4.62693,-4.97746 8.50024,-10.65597 11.61991,-17.03553v42.48367h-12.51375l-15.98395,-49.47665c-4.69704,4.76714 -8.58787,10.23534 -11.67249,16.40458v-44.21877h13.09212M288.17099,165.78868h11.61991v26.65745c-2.24336,7.53629 -6.11667,14.51175 -11.61991,20.92636v-47.58381M259.6207,218.68295c2.17326,-7.15072 6.06409,-13.82822 11.67249,-20.03252v59.67708h-11.67249zM271.2932,270h-11.67249v-11.67249h-11.67249v11.67249h-56.049v-11.67249h79.39398zM320.50695,225.2553l-2.83926,17.82421h-12.1457l7.09814,-41.9053c2.34852,-6.2043 6.81772,-10.83123 13.40759,-13.8808l-3.73309,26.60487h8.62292l-4.36404,-30.33797c-4.83725,1.78768 -8.92087,4.41662 -12.25086,7.88682l4.36404,-25.60587h15.98395l11.56734,69.03596c-3.75062,-3.85578 -8.2724,-7.06309 -13.56533,-9.62192h-12.1457M335.38675,243.07951l-2.15573,-13.98596c6.73009,3.75062 11.51476,8.41261 14.35401,13.98596zM371.03517,244.02593c-5.11767,0 -9.48171,-1.80521 -13.09212,-5.41562c-3.57536,-3.61041 -5.36304,-7.95692 -5.36304,-13.03954v-12.98696c2.0681,-5.85377 5.8713,-10.23534 11.4096,-13.1447v26.0265c0,1.85778 0.64847,3.43515 1.94542,4.73209c1.29694,1.29694 2.87431,1.94542 4.73209,1.94542c1.85778,0 3.43515,-0.64847 4.73209,-1.94542c1.332,-1.29694 1.99799,-2.85678 1.99799,-4.67951v-12.1457h12.04054v12.25086c0,5.11767 -1.80521,9.46418 -5.41562,13.03954c-3.61041,3.57536 -7.9394,5.36304 -12.98696,5.36304M352.58001,183.45516c0,-5.11767 1.80521,-9.48171 5.41562,-13.09212c3.57536,-3.57536 7.92187,-5.36304 13.03954,-5.36304c5.11767,0 9.46418,1.80521 13.03954,5.41562c3.57536,3.61041 5.36304,7.95692 5.36304,13.03954v8.83324h-12.04054v-9.04355c0,-1.85778 -0.666,-3.43515 -1.99799,-4.73209c-1.29694,-1.332 -2.87431,-1.99799 -4.73209,-1.99799c-1.85778,0 -3.43515,0.666 -4.73209,1.99799c-1.29694,1.29694 -1.94542,2.87431 -1.94542,4.73209v12.67149c-4.59188,2.03305 -8.39508,5.11767 -11.4096,9.25387v-21.71504M370.87743,210.27034v-11.61991h18.56032v11.61991zM396.16784,243.07951v-11.56734h33.17722v11.56734h-33.17722M396.16784,228.41003v-33.80817c2.0681,-6.06409 5.9414,-10.60339 11.61991,-13.61791v17.56132h15.72106v11.72507h-15.72106v18.13968h-11.61991M396.16784,165.78868h33.17722v11.67249h-21.55731c-4.69704,2.0681 -8.57034,5.24035 -11.61991,9.51676zM156.88173,270h-36.22679v-11.67249h36.22679zM429.34506,258.32751v11.67249h-146.37937v-11.67249z"></path><path d="M258.96712,290.52326c-1.35659,0 -2.40698,0.50969 -3.15116,1.52907c-0.74419,1.01938 -1.11628,2.43992 -1.11628,4.26163c0,3.7907 1.42248,5.68605 4.26744,5.68605c1.1938,0 2.63953,-0.29845 4.33721,-0.89535v3.02326c-1.39535,0.5814 -2.95349,0.87209 -4.67442,0.87209c-2.47287,0 -4.36434,-0.75 -5.67442,-2.25c-1.31008,-1.5 -1.96512,-3.6531 -1.96512,-6.4593c0,-1.76744 0.32171,-3.31589 0.96512,-4.64535c0.64341,-1.32946 1.56783,-2.34884 2.77326,-3.05814c1.20543,-0.7093 2.61822,-1.06395 4.23837,-1.06395c1.65116,0 3.31008,0.39922 4.97674,1.19767l-1.16279,2.93023c-0.63566,-0.30233 -1.27519,-0.56589 -1.9186,-0.7907c-0.64341,-0.22481 -1.27519,-0.33721 -1.89535,-0.33721zM275.20622,287.76744h5.2907c2.41085,0 4.16085,0.34302 5.25,1.02907c1.08915,0.68605 1.63372,1.77713 1.63372,3.27326c0,1.0155 -0.23837,1.84884 -0.71512,2.5c-0.47674,0.65116 -1.11047,1.04264 -1.90116,1.17442v0.11628c1.07752,0.24031 1.85465,0.68992 2.3314,1.34884c0.47674,0.65891 0.71512,1.53488 0.71512,2.62791c0,1.55039 -0.56008,2.75969 -1.68023,3.62791c-1.12016,0.86822 -2.64147,1.30233 -4.56395,1.30233h-6.36047v-17M278.81087,294.5h2.09302c0.97674,0 1.68411,-0.15116 2.12209,-0.45349c0.43798,-0.30233 0.65698,-0.80233 0.65698,-1.5c0,-0.65116 -0.23837,-1.11822 -0.71512,-1.40116c-0.47674,-0.28295 -1.23062,-0.42442 -2.26163,-0.42442h-1.89535v3.77907M278.81087,297.36047v4.43023h2.34884c0.99225,0 1.72481,-0.18992 2.19767,-0.56977c0.47287,-0.37984 0.7093,-0.96124 0.7093,-1.74419c0,-1.41085 -1.00775,-2.11628 -3.02326,-2.11628zM313.59648,296.10465c0,2.79845 -0.79651,4.94186 -2.38953,6.43023c-1.59302,1.48837 -3.89341,2.23256 -6.90116,2.23256h-4.81395v-17h5.33721c2.77519,0 4.93023,0.73256 6.46512,2.19767c1.53488,1.46512 2.30233,3.51163 2.30233,6.13953M309.85229,296.19767c0,-3.65116 -1.6124,-5.47674 -4.83721,-5.47674h-1.9186v11.06977h1.54651c3.47287,0 5.2093,-1.86434 5.2093,-5.59302zM349.91188,300.04651c0,1.53488 -0.55233,2.74419 -1.65698,3.62791c-1.10465,0.88372 -2.64147,1.32558 -4.61047,1.32558c-1.81395,0 -3.4186,-0.34109 -4.81395,-1.02326v-3.34884c1.14729,0.51163 2.11822,0.87209 2.91279,1.0814c0.79457,0.2093 1.52132,0.31395 2.18023,0.31395c0.7907,0 1.39729,-0.15116 1.81977,-0.45349c0.42248,-0.30233 0.63372,-0.75194 0.63372,-1.34884c0,-0.33333 -0.09302,-0.62985 -0.27907,-0.88953c-0.18605,-0.25969 -0.4593,-0.50969 -0.81977,-0.75c-0.36047,-0.24031 -1.09496,-0.62403 -2.20349,-1.15116c-1.03876,-0.48837 -1.81783,-0.95736 -2.33721,-1.40698c-0.51938,-0.44961 -0.93411,-0.97287 -1.24419,-1.56977c-0.31008,-0.5969 -0.46512,-1.29457 -0.46512,-2.09302c0,-1.50388 0.50969,-2.68605 1.52907,-3.54651c1.01938,-0.86047 2.42829,-1.2907 4.22674,-1.2907c0.88372,0 1.72674,0.10465 2.52907,0.31395c0.80233,0.2093 1.64147,0.50388 2.51744,0.88372l-1.16279,2.80233c-0.90698,-0.37209 -1.65698,-0.63178 -2.25,-0.77907c-0.59302,-0.14729 -1.17636,-0.22093 -1.75,-0.22093c-0.68217,0 -1.20543,0.15891 -1.56977,0.47674c-0.36434,0.31783 -0.54651,0.73256 -0.54651,1.24419c0,0.31783 0.07364,0.59496 0.22093,0.8314c0.14729,0.23643 0.38178,0.46512 0.70349,0.68605c0.32171,0.22093 1.08333,0.61822 2.28488,1.19186c1.58915,0.75969 2.67829,1.52132 3.26744,2.28488c0.58915,0.76357 0.88372,1.69961 0.88372,2.80814zM375.20911,304.76744h-3.59302v-7.33721h-6.73256v7.33721h-3.60465v-17h3.60465v6.66279h6.73256v-6.66279h3.59302zM403.21565,296.24419c0,2.81395 -0.69767,4.97674 -2.09302,6.48837c-1.39535,1.51163 -3.39535,2.26744 -6,2.26744c-2.60465,0 -4.60465,-0.75581 -6,-2.26744c-1.39535,-1.51163 -2.09302,-3.68217 -2.09302,-6.51163c0,-2.82946 0.69961,-4.99031 2.09884,-6.48256c1.39922,-1.49225 3.40504,-2.23837 6.01744,-2.23837c2.6124,0 4.61047,0.75194 5.99419,2.25581c1.38372,1.50388 2.07558,3.66667 2.07558,6.48837M390.80867,296.24419c0,1.89922 0.36047,3.32946 1.0814,4.2907c0.72093,0.96124 1.79845,1.44186 3.23256,1.44186c2.87597,0 4.31395,-1.91085 4.31395,-5.73256c0,-3.82946 -1.43023,-5.74419 -4.2907,-5.74419c-1.43411,0 -2.5155,0.48256 -3.24419,1.44767c-0.72868,0.96512 -1.09302,2.39729 -1.09302,4.29651zM418.62916,295.76744h1.18605c1.10853,0 1.93798,-0.21899 2.48837,-0.65698c0.55039,-0.43798 0.82558,-1.07558 0.82558,-1.91279c0,-0.84496 -0.23062,-1.46899 -0.69186,-1.87209c-0.46124,-0.4031 -1.18411,-0.60465 -2.1686,-0.60465h-1.63953v5.04651M426.76869,293.06977c0,1.82946 -0.57171,3.22868 -1.71512,4.19767c-1.14341,0.96899 -2.76938,1.45349 -4.87791,1.45349h-1.54651v6.04651h-3.60465v-17h5.43023c2.06202,0 3.62985,0.4438 4.70349,1.3314c1.07364,0.8876 1.61047,2.21124 1.61047,3.97093z"></path></g></g></svg>
